<mxfile host="Electron" agent="Mozilla/5.0 (Macintosh; Intel Mac OS X 10_15_7) AppleWebKit/537.36 (KHTML, like Gecko) draw.io/28.0.6 Chrome/138.0.7204.100 Electron/37.2.3 Safari/537.36" version="28.0.6">
  <diagram name="Page-1" id="5HNTrQkRalIt3rfy9fps">
    <mxGraphModel dx="1574" dy="987" grid="1" gridSize="10" guides="1" tooltips="1" connect="1" arrows="1" fold="1" page="1" pageScale="1" pageWidth="1100" pageHeight="850" math="0" shadow="0">
      <root>
        <mxCell id="0" />
        <mxCell id="1" parent="0" />
        <mxCell id="MDQ2Gq9n4eFnpE_oAw1Z-2" value="" style="rounded=0;whiteSpace=wrap;html=1;strokeWidth=5;" vertex="1" parent="1">
          <mxGeometry x="420" y="116" width="275" height="160" as="geometry" />
        </mxCell>
        <mxCell id="MDQ2Gq9n4eFnpE_oAw1Z-3" value="" style="rounded=0;whiteSpace=wrap;html=1;align=left;strokeWidth=5;" vertex="1" parent="1">
          <mxGeometry x="60" y="116" width="270" height="160" as="geometry" />
        </mxCell>
        <mxCell id="MDQ2Gq9n4eFnpE_oAw1Z-4" value="" style="rounded=0;whiteSpace=wrap;html=1;strokeWidth=5;" vertex="1" parent="1">
          <mxGeometry x="790" y="116" width="245" height="160" as="geometry" />
        </mxCell>
        <mxCell id="MDQ2Gq9n4eFnpE_oAw1Z-5" value="BW2" style="endArrow=none;html=1;rounded=0;exitX=1;exitY=0.5;exitDx=0;exitDy=0;entryX=0;entryY=0.5;entryDx=0;entryDy=0;strokeWidth=8;fillColor=#0050ef;strokeColor=#001DBC;" edge="1" parent="1" source="MDQ2Gq9n4eFnpE_oAw1Z-3" target="MDQ2Gq9n4eFnpE_oAw1Z-2">
          <mxGeometry width="50" height="50" relative="1" as="geometry">
            <mxPoint x="500" y="376" as="sourcePoint" />
            <mxPoint x="550" y="326" as="targetPoint" />
          </mxGeometry>
        </mxCell>
        <mxCell id="MDQ2Gq9n4eFnpE_oAw1Z-6" value="" style="endArrow=none;html=1;rounded=0;exitX=1;exitY=0.5;exitDx=0;exitDy=0;entryX=0;entryY=0.5;entryDx=0;entryDy=0;" edge="1" parent="1" source="MDQ2Gq9n4eFnpE_oAw1Z-45" target="MDQ2Gq9n4eFnpE_oAw1Z-4">
          <mxGeometry width="50" height="50" relative="1" as="geometry">
            <mxPoint x="680" y="206" as="sourcePoint" />
            <mxPoint x="800" y="206" as="targetPoint" />
          </mxGeometry>
        </mxCell>
        <mxCell id="MDQ2Gq9n4eFnpE_oAw1Z-15" value="BW1" style="rounded=0;orthogonalLoop=1;jettySize=auto;html=1;shape=wire;dashed=1;endArrow=none;endFill=0;entryX=0.192;entryY=1.004;entryDx=0;entryDy=0;entryPerimeter=0;exitX=0.5;exitY=0;exitDx=0;exitDy=0;fontSize=9;strokeWidth=8;fillColor=#d80073;strokeColor=#A50040;" edge="1" parent="1" source="MDQ2Gq9n4eFnpE_oAw1Z-8" target="MDQ2Gq9n4eFnpE_oAw1Z-3">
          <mxGeometry relative="1" as="geometry">
            <mxPoint x="140" y="336" as="sourcePoint" />
            <mxPoint x="150" y="296" as="targetPoint" />
          </mxGeometry>
        </mxCell>
        <mxCell id="MDQ2Gq9n4eFnpE_oAw1Z-8" value="Terminal&lt;div&gt;[ term-id: 14 ]&lt;/div&gt;" style="rounded=0;whiteSpace=wrap;html=1;verticalAlign=bottom;strokeWidth=5;" vertex="1" parent="1">
          <mxGeometry x="60" y="356" width="100" height="150" as="geometry" />
        </mxCell>
        <mxCell id="MDQ2Gq9n4eFnpE_oAw1Z-9" value="Terminal&lt;div&gt;[ term-id: 15 ]&lt;/div&gt;" style="rounded=0;whiteSpace=wrap;html=1;verticalAlign=bottom;strokeWidth=5;" vertex="1" parent="1">
          <mxGeometry x="230" y="356" width="100" height="150" as="geometry" />
        </mxCell>
        <mxCell id="MDQ2Gq9n4eFnpE_oAw1Z-10" value="Terminal&lt;div&gt;[ term-id: 0 ]&lt;/div&gt;" style="rounded=0;whiteSpace=wrap;html=1;verticalAlign=bottom;strokeWidth=5;" vertex="1" parent="1">
          <mxGeometry x="425" y="356" width="100" height="150" as="geometry" />
        </mxCell>
        <mxCell id="MDQ2Gq9n4eFnpE_oAw1Z-11" value="Terminal&lt;div&gt;[ term-id: 1 ]&lt;/div&gt;" style="rounded=0;whiteSpace=wrap;html=1;verticalAlign=bottom;strokeWidth=5;" vertex="1" parent="1">
          <mxGeometry x="595" y="356" width="100" height="150" as="geometry" />
        </mxCell>
        <mxCell id="MDQ2Gq9n4eFnpE_oAw1Z-12" value="Terminal&lt;div&gt;[ term-id: 2 ]&lt;/div&gt;" style="rounded=0;whiteSpace=wrap;html=1;verticalAlign=bottom;strokeWidth=5;" vertex="1" parent="1">
          <mxGeometry x="790" y="356" width="100" height="150" as="geometry" />
        </mxCell>
        <mxCell id="MDQ2Gq9n4eFnpE_oAw1Z-13" value="Terminal&lt;div&gt;[ term-id: 3 ]&lt;/div&gt;" style="rounded=0;whiteSpace=wrap;html=1;verticalAlign=bottom;strokeWidth=5;" vertex="1" parent="1">
          <mxGeometry x="935" y="356" width="100" height="150" as="geometry" />
        </mxCell>
        <mxCell id="MDQ2Gq9n4eFnpE_oAw1Z-16" value="BW1" style="rounded=0;orthogonalLoop=1;jettySize=auto;html=1;shape=wire;dashed=1;endArrow=none;endFill=0;exitX=0.5;exitY=0;exitDx=0;exitDy=0;fontSize=9;strokeWidth=8;fillColor=#d80073;strokeColor=#A50040;" edge="1" parent="1" source="MDQ2Gq9n4eFnpE_oAw1Z-9">
          <mxGeometry relative="1" as="geometry">
            <mxPoint x="280" y="398" as="sourcePoint" />
            <mxPoint x="280" y="276" as="targetPoint" />
          </mxGeometry>
        </mxCell>
        <mxCell id="MDQ2Gq9n4eFnpE_oAw1Z-17" value="BW1" style="rounded=0;orthogonalLoop=1;jettySize=auto;html=1;shape=wire;dashed=1;endArrow=none;endFill=0;entryX=0.196;entryY=1;entryDx=0;entryDy=0;entryPerimeter=0;fontSize=9;strokeWidth=8;fillColor=#d80073;strokeColor=#A50040;" edge="1" parent="1" source="MDQ2Gq9n4eFnpE_oAw1Z-10" target="MDQ2Gq9n4eFnpE_oAw1Z-2">
          <mxGeometry relative="1" as="geometry">
            <mxPoint x="290" y="376" as="sourcePoint" />
            <mxPoint x="290" y="296" as="targetPoint" />
          </mxGeometry>
        </mxCell>
        <mxCell id="MDQ2Gq9n4eFnpE_oAw1Z-18" value="BW1" style="rounded=0;orthogonalLoop=1;jettySize=auto;html=1;shape=wire;dashed=1;endArrow=none;endFill=0;entryX=0.5;entryY=1;entryDx=0;entryDy=0;exitX=0.5;exitY=0;exitDx=0;exitDy=0;fontSize=9;strokeWidth=8;fillColor=#d80073;strokeColor=#A50040;" edge="1" parent="1" source="MDQ2Gq9n4eFnpE_oAw1Z-29" target="MDQ2Gq9n4eFnpE_oAw1Z-35">
          <mxGeometry relative="1" as="geometry">
            <mxPoint x="531" y="376" as="sourcePoint" />
            <mxPoint x="530" y="296" as="targetPoint" />
          </mxGeometry>
        </mxCell>
        <mxCell id="MDQ2Gq9n4eFnpE_oAw1Z-19" value="BW1" style="rounded=0;orthogonalLoop=1;jettySize=auto;html=1;shape=wire;dashed=1;endArrow=none;endFill=0;entryX=0.5;entryY=1;entryDx=0;entryDy=0;exitX=0.5;exitY=0;exitDx=0;exitDy=0;fontSize=9;strokeWidth=8;fillColor=#d80073;strokeColor=#A50040;" edge="1" parent="1" source="MDQ2Gq9n4eFnpE_oAw1Z-30" target="MDQ2Gq9n4eFnpE_oAw1Z-40">
          <mxGeometry relative="1" as="geometry">
            <mxPoint x="721" y="406" as="sourcePoint" />
            <mxPoint x="720" y="326" as="targetPoint" />
          </mxGeometry>
        </mxCell>
        <mxCell id="MDQ2Gq9n4eFnpE_oAw1Z-23" value="Router [ id: 7 ]&amp;nbsp;" style="text;html=1;align=center;verticalAlign=middle;whiteSpace=wrap;rounded=0;" vertex="1" parent="1">
          <mxGeometry x="50" y="90" width="110" height="30" as="geometry" />
        </mxCell>
        <mxCell id="MDQ2Gq9n4eFnpE_oAw1Z-24" value="Router [ id: 0 ]&amp;nbsp;" style="text;html=1;align=center;verticalAlign=middle;whiteSpace=wrap;rounded=0;" vertex="1" parent="1">
          <mxGeometry x="440" y="90" width="110" height="30" as="geometry" />
        </mxCell>
        <mxCell id="MDQ2Gq9n4eFnpE_oAw1Z-25" value="Router [ id: 1 ]&amp;nbsp;" style="text;html=1;align=center;verticalAlign=middle;whiteSpace=wrap;rounded=0;" vertex="1" parent="1">
          <mxGeometry x="780" y="90" width="110" height="30" as="geometry" />
        </mxCell>
        <mxCell id="MDQ2Gq9n4eFnpE_oAw1Z-26" value="" style="rounded=0;whiteSpace=wrap;html=1;fontSize=9;" vertex="1" parent="1">
          <mxGeometry x="85" y="346" width="50" height="10" as="geometry" />
        </mxCell>
        <mxCell id="MDQ2Gq9n4eFnpE_oAw1Z-27" value="" style="rounded=0;whiteSpace=wrap;html=1;fontSize=9;" vertex="1" parent="1">
          <mxGeometry x="255" y="346" width="50" height="10" as="geometry" />
        </mxCell>
        <mxCell id="MDQ2Gq9n4eFnpE_oAw1Z-28" value="" style="rounded=0;whiteSpace=wrap;html=1;fontSize=9;" vertex="1" parent="1">
          <mxGeometry x="450" y="346" width="50" height="10" as="geometry" />
        </mxCell>
        <mxCell id="MDQ2Gq9n4eFnpE_oAw1Z-30" value="" style="rounded=0;whiteSpace=wrap;html=1;fontSize=9;" vertex="1" parent="1">
          <mxGeometry x="810" y="346" width="50" height="10" as="geometry" />
        </mxCell>
        <mxCell id="MDQ2Gq9n4eFnpE_oAw1Z-32" value="" style="rounded=0;whiteSpace=wrap;html=1;fontSize=9;" vertex="1" parent="1">
          <mxGeometry x="85" y="276" width="50" height="10" as="geometry" />
        </mxCell>
        <mxCell id="MDQ2Gq9n4eFnpE_oAw1Z-33" value="" style="rounded=0;whiteSpace=wrap;html=1;fontSize=9;" vertex="1" parent="1">
          <mxGeometry x="255" y="276" width="50" height="10" as="geometry" />
        </mxCell>
        <mxCell id="MDQ2Gq9n4eFnpE_oAw1Z-34" value="" style="rounded=0;whiteSpace=wrap;html=1;fontSize=9;" vertex="1" parent="1">
          <mxGeometry x="450" y="276" width="50" height="10" as="geometry" />
        </mxCell>
        <mxCell id="MDQ2Gq9n4eFnpE_oAw1Z-35" value="" style="rounded=0;whiteSpace=wrap;html=1;fontSize=9;" vertex="1" parent="1">
          <mxGeometry x="620" y="276" width="50" height="10" as="geometry" />
        </mxCell>
        <mxCell id="MDQ2Gq9n4eFnpE_oAw1Z-36" value="" style="rounded=0;whiteSpace=wrap;html=1;rotation=-90;fontSize=9;" vertex="1" parent="1">
          <mxGeometry x="310" y="191" width="50" height="10" as="geometry" />
        </mxCell>
        <mxCell id="MDQ2Gq9n4eFnpE_oAw1Z-38" value="" style="rounded=0;orthogonalLoop=1;jettySize=auto;html=1;shape=wire;dashed=1;endArrow=none;endFill=0;entryX=0.5;entryY=1;entryDx=0;entryDy=0;exitX=0.5;exitY=0;exitDx=0;exitDy=0;fontSize=9;verticalAlign=bottom;" edge="1" parent="1" source="MDQ2Gq9n4eFnpE_oAw1Z-11" target="MDQ2Gq9n4eFnpE_oAw1Z-29">
          <mxGeometry relative="1" as="geometry">
            <mxPoint x="645" y="356" as="sourcePoint" />
            <mxPoint x="645" y="276" as="targetPoint" />
          </mxGeometry>
        </mxCell>
        <mxCell id="MDQ2Gq9n4eFnpE_oAw1Z-29" value="" style="rounded=0;whiteSpace=wrap;html=1;fontSize=9;" vertex="1" parent="1">
          <mxGeometry x="620" y="346" width="50" height="10" as="geometry" />
        </mxCell>
        <mxCell id="MDQ2Gq9n4eFnpE_oAw1Z-39" value="BW1" style="rounded=0;orthogonalLoop=1;jettySize=auto;html=1;shape=wire;dashed=1;endArrow=none;endFill=0;entryX=0.5;entryY=0;entryDx=0;entryDy=0;exitX=0.5;exitY=1;exitDx=0;exitDy=0;fontSize=9;strokeWidth=8;fillColor=#d80073;strokeColor=#A50040;" edge="1" parent="1" source="MDQ2Gq9n4eFnpE_oAw1Z-41" target="MDQ2Gq9n4eFnpE_oAw1Z-31">
          <mxGeometry relative="1" as="geometry">
            <mxPoint x="985" y="275" as="sourcePoint" />
            <mxPoint x="985" y="356" as="targetPoint" />
          </mxGeometry>
        </mxCell>
        <mxCell id="MDQ2Gq9n4eFnpE_oAw1Z-31" value="" style="rounded=0;whiteSpace=wrap;html=1;fontSize=9;" vertex="1" parent="1">
          <mxGeometry x="960" y="346" width="50" height="10" as="geometry" />
        </mxCell>
        <mxCell id="MDQ2Gq9n4eFnpE_oAw1Z-40" value="" style="rounded=0;whiteSpace=wrap;html=1;fontSize=9;" vertex="1" parent="1">
          <mxGeometry x="810" y="276" width="50" height="10" as="geometry" />
        </mxCell>
        <mxCell id="MDQ2Gq9n4eFnpE_oAw1Z-41" value="" style="rounded=0;whiteSpace=wrap;html=1;fontSize=9;" vertex="1" parent="1">
          <mxGeometry x="960" y="276" width="50" height="10" as="geometry" />
        </mxCell>
        <mxCell id="MDQ2Gq9n4eFnpE_oAw1Z-43" value="" style="rounded=0;whiteSpace=wrap;html=1;rotation=-90;fontSize=9;" vertex="1" parent="1">
          <mxGeometry x="390" y="191" width="50" height="10" as="geometry" />
        </mxCell>
        <mxCell id="MDQ2Gq9n4eFnpE_oAw1Z-44" value="" style="rounded=0;whiteSpace=wrap;html=1;rotation=-90;fontSize=9;" vertex="1" parent="1">
          <mxGeometry x="675" y="191" width="50" height="10" as="geometry" />
        </mxCell>
        <mxCell id="MDQ2Gq9n4eFnpE_oAw1Z-46" value="BW3" style="endArrow=none;html=1;rounded=0;entryX=0.5;entryY=0;entryDx=0;entryDy=0;exitX=0.5;exitY=1;exitDx=0;exitDy=0;strokeWidth=8;fillColor=#008a00;strokeColor=#005700;" edge="1" parent="1" source="MDQ2Gq9n4eFnpE_oAw1Z-44" target="MDQ2Gq9n4eFnpE_oAw1Z-45">
          <mxGeometry width="50" height="50" relative="1" as="geometry">
            <mxPoint x="710" y="196" as="sourcePoint" />
            <mxPoint x="810" y="196" as="targetPoint" />
          </mxGeometry>
        </mxCell>
        <mxCell id="MDQ2Gq9n4eFnpE_oAw1Z-45" value="" style="rounded=0;whiteSpace=wrap;html=1;rotation=-90;fontSize=9;" vertex="1" parent="1">
          <mxGeometry x="760" y="191" width="50" height="10" as="geometry" />
        </mxCell>
        <mxCell id="MDQ2Gq9n4eFnpE_oAw1Z-60" value="" style="shape=table;startSize=0;container=1;collapsible=0;childLayout=tableLayout;fontSize=16;fillColor=#dae8fc;strokeColor=#6c8ebf;strokeWidth=2;swimlaneFillColor=#000000;" vertex="1" parent="1">
          <mxGeometry x="102.5" y="356" width="15" height="40" as="geometry" />
        </mxCell>
        <mxCell id="MDQ2Gq9n4eFnpE_oAw1Z-61" value="" style="shape=tableRow;horizontal=0;startSize=0;swimlaneHead=0;swimlaneBody=0;strokeColor=inherit;top=0;left=0;bottom=0;right=0;collapsible=0;dropTarget=0;fillColor=none;points=[[0,0.5],[1,0.5]];portConstraint=eastwest;fontSize=16;" vertex="1" parent="MDQ2Gq9n4eFnpE_oAw1Z-60">
          <mxGeometry width="15" height="10" as="geometry" />
        </mxCell>
        <mxCell id="MDQ2Gq9n4eFnpE_oAw1Z-62" value="" style="shape=partialRectangle;html=1;whiteSpace=wrap;connectable=0;strokeColor=inherit;overflow=hidden;fillColor=none;top=0;left=0;bottom=0;right=0;pointerEvents=1;fontSize=16;" vertex="1" parent="MDQ2Gq9n4eFnpE_oAw1Z-61">
          <mxGeometry width="15" height="10" as="geometry">
            <mxRectangle width="15" height="10" as="alternateBounds" />
          </mxGeometry>
        </mxCell>
        <mxCell id="MDQ2Gq9n4eFnpE_oAw1Z-65" value="" style="shape=tableRow;horizontal=0;startSize=0;swimlaneHead=0;swimlaneBody=0;strokeColor=inherit;top=0;left=0;bottom=0;right=0;collapsible=0;dropTarget=0;fillColor=none;points=[[0,0.5],[1,0.5]];portConstraint=eastwest;fontSize=16;" vertex="1" parent="MDQ2Gq9n4eFnpE_oAw1Z-60">
          <mxGeometry y="10" width="15" height="10" as="geometry" />
        </mxCell>
        <mxCell id="MDQ2Gq9n4eFnpE_oAw1Z-66" value="" style="shape=partialRectangle;html=1;whiteSpace=wrap;connectable=0;strokeColor=inherit;overflow=hidden;fillColor=none;top=0;left=0;bottom=0;right=0;pointerEvents=1;fontSize=16;" vertex="1" parent="MDQ2Gq9n4eFnpE_oAw1Z-65">
          <mxGeometry width="15" height="10" as="geometry">
            <mxRectangle width="15" height="10" as="alternateBounds" />
          </mxGeometry>
        </mxCell>
        <mxCell id="MDQ2Gq9n4eFnpE_oAw1Z-78" style="shape=tableRow;horizontal=0;startSize=0;swimlaneHead=0;swimlaneBody=0;strokeColor=inherit;top=0;left=0;bottom=0;right=0;collapsible=0;dropTarget=0;fillColor=none;points=[[0,0.5],[1,0.5]];portConstraint=eastwest;fontSize=16;" vertex="1" parent="MDQ2Gq9n4eFnpE_oAw1Z-60">
          <mxGeometry y="20" width="15" height="10" as="geometry" />
        </mxCell>
        <mxCell id="MDQ2Gq9n4eFnpE_oAw1Z-79" style="shape=partialRectangle;html=1;whiteSpace=wrap;connectable=0;strokeColor=inherit;overflow=hidden;fillColor=none;top=0;left=0;bottom=0;right=0;pointerEvents=1;fontSize=16;" vertex="1" parent="MDQ2Gq9n4eFnpE_oAw1Z-78">
          <mxGeometry width="15" height="10" as="geometry">
            <mxRectangle width="15" height="10" as="alternateBounds" />
          </mxGeometry>
        </mxCell>
        <mxCell id="MDQ2Gq9n4eFnpE_oAw1Z-76" style="shape=tableRow;horizontal=0;startSize=0;swimlaneHead=0;swimlaneBody=0;strokeColor=inherit;top=0;left=0;bottom=0;right=0;collapsible=0;dropTarget=0;fillColor=none;points=[[0,0.5],[1,0.5]];portConstraint=eastwest;fontSize=16;" vertex="1" parent="MDQ2Gq9n4eFnpE_oAw1Z-60">
          <mxGeometry y="30" width="15" height="10" as="geometry" />
        </mxCell>
        <mxCell id="MDQ2Gq9n4eFnpE_oAw1Z-77" style="shape=partialRectangle;html=1;whiteSpace=wrap;connectable=0;strokeColor=inherit;overflow=hidden;fillColor=none;top=0;left=0;bottom=0;right=0;pointerEvents=1;fontSize=16;" vertex="1" parent="MDQ2Gq9n4eFnpE_oAw1Z-76">
          <mxGeometry width="15" height="10" as="geometry">
            <mxRectangle width="15" height="10" as="alternateBounds" />
          </mxGeometry>
        </mxCell>
        <mxCell id="MDQ2Gq9n4eFnpE_oAw1Z-98" value="" style="shape=table;startSize=0;container=1;collapsible=0;childLayout=tableLayout;fontSize=16;fillColor=#dae8fc;strokeColor=#6c8ebf;strokeWidth=2;swimlaneFillColor=#000000;" vertex="1" parent="1">
          <mxGeometry x="637.5" y="356" width="15" height="40" as="geometry" />
        </mxCell>
        <mxCell id="MDQ2Gq9n4eFnpE_oAw1Z-99" value="" style="shape=tableRow;horizontal=0;startSize=0;swimlaneHead=0;swimlaneBody=0;strokeColor=inherit;top=0;left=0;bottom=0;right=0;collapsible=0;dropTarget=0;fillColor=none;points=[[0,0.5],[1,0.5]];portConstraint=eastwest;fontSize=16;" vertex="1" parent="MDQ2Gq9n4eFnpE_oAw1Z-98">
          <mxGeometry width="15" height="10" as="geometry" />
        </mxCell>
        <mxCell id="MDQ2Gq9n4eFnpE_oAw1Z-100" value="" style="shape=partialRectangle;html=1;whiteSpace=wrap;connectable=0;strokeColor=inherit;overflow=hidden;fillColor=none;top=0;left=0;bottom=0;right=0;pointerEvents=1;fontSize=16;" vertex="1" parent="MDQ2Gq9n4eFnpE_oAw1Z-99">
          <mxGeometry width="15" height="10" as="geometry">
            <mxRectangle width="15" height="10" as="alternateBounds" />
          </mxGeometry>
        </mxCell>
        <mxCell id="MDQ2Gq9n4eFnpE_oAw1Z-101" value="" style="shape=tableRow;horizontal=0;startSize=0;swimlaneHead=0;swimlaneBody=0;strokeColor=inherit;top=0;left=0;bottom=0;right=0;collapsible=0;dropTarget=0;fillColor=none;points=[[0,0.5],[1,0.5]];portConstraint=eastwest;fontSize=16;" vertex="1" parent="MDQ2Gq9n4eFnpE_oAw1Z-98">
          <mxGeometry y="10" width="15" height="10" as="geometry" />
        </mxCell>
        <mxCell id="MDQ2Gq9n4eFnpE_oAw1Z-102" value="" style="shape=partialRectangle;html=1;whiteSpace=wrap;connectable=0;strokeColor=inherit;overflow=hidden;fillColor=none;top=0;left=0;bottom=0;right=0;pointerEvents=1;fontSize=16;" vertex="1" parent="MDQ2Gq9n4eFnpE_oAw1Z-101">
          <mxGeometry width="15" height="10" as="geometry">
            <mxRectangle width="15" height="10" as="alternateBounds" />
          </mxGeometry>
        </mxCell>
        <mxCell id="MDQ2Gq9n4eFnpE_oAw1Z-103" style="shape=tableRow;horizontal=0;startSize=0;swimlaneHead=0;swimlaneBody=0;strokeColor=inherit;top=0;left=0;bottom=0;right=0;collapsible=0;dropTarget=0;fillColor=none;points=[[0,0.5],[1,0.5]];portConstraint=eastwest;fontSize=16;" vertex="1" parent="MDQ2Gq9n4eFnpE_oAw1Z-98">
          <mxGeometry y="20" width="15" height="10" as="geometry" />
        </mxCell>
        <mxCell id="MDQ2Gq9n4eFnpE_oAw1Z-104" style="shape=partialRectangle;html=1;whiteSpace=wrap;connectable=0;strokeColor=inherit;overflow=hidden;fillColor=none;top=0;left=0;bottom=0;right=0;pointerEvents=1;fontSize=16;" vertex="1" parent="MDQ2Gq9n4eFnpE_oAw1Z-103">
          <mxGeometry width="15" height="10" as="geometry">
            <mxRectangle width="15" height="10" as="alternateBounds" />
          </mxGeometry>
        </mxCell>
        <mxCell id="MDQ2Gq9n4eFnpE_oAw1Z-105" style="shape=tableRow;horizontal=0;startSize=0;swimlaneHead=0;swimlaneBody=0;strokeColor=inherit;top=0;left=0;bottom=0;right=0;collapsible=0;dropTarget=0;fillColor=none;points=[[0,0.5],[1,0.5]];portConstraint=eastwest;fontSize=16;" vertex="1" parent="MDQ2Gq9n4eFnpE_oAw1Z-98">
          <mxGeometry y="30" width="15" height="10" as="geometry" />
        </mxCell>
        <mxCell id="MDQ2Gq9n4eFnpE_oAw1Z-106" style="shape=partialRectangle;html=1;whiteSpace=wrap;connectable=0;strokeColor=inherit;overflow=hidden;fillColor=none;top=0;left=0;bottom=0;right=0;pointerEvents=1;fontSize=16;" vertex="1" parent="MDQ2Gq9n4eFnpE_oAw1Z-105">
          <mxGeometry width="15" height="10" as="geometry">
            <mxRectangle width="15" height="10" as="alternateBounds" />
          </mxGeometry>
        </mxCell>
        <mxCell id="MDQ2Gq9n4eFnpE_oAw1Z-305" style="edgeStyle=orthogonalEdgeStyle;rounded=0;orthogonalLoop=1;jettySize=auto;html=1;entryX=0;entryY=0.5;entryDx=0;entryDy=0;curved=1;startArrow=classic;startFill=1;dashed=1;dashPattern=8 8;" edge="1" parent="1" source="MDQ2Gq9n4eFnpE_oAw1Z-125" target="MDQ2Gq9n4eFnpE_oAw1Z-200">
          <mxGeometry relative="1" as="geometry" />
        </mxCell>
        <mxCell id="MDQ2Gq9n4eFnpE_oAw1Z-125" value="" style="shape=table;startSize=0;container=1;collapsible=0;childLayout=tableLayout;fontSize=16;fillColor=#dae8fc;strokeColor=#6c8ebf;strokeWidth=2;swimlaneFillColor=#000000;" vertex="1" parent="1">
          <mxGeometry x="102.5" y="236" width="15" height="40" as="geometry" />
        </mxCell>
        <mxCell id="MDQ2Gq9n4eFnpE_oAw1Z-126" value="" style="shape=tableRow;horizontal=0;startSize=0;swimlaneHead=0;swimlaneBody=0;strokeColor=inherit;top=0;left=0;bottom=0;right=0;collapsible=0;dropTarget=0;fillColor=none;points=[[0,0.5],[1,0.5]];portConstraint=eastwest;fontSize=16;" vertex="1" parent="MDQ2Gq9n4eFnpE_oAw1Z-125">
          <mxGeometry width="15" height="10" as="geometry" />
        </mxCell>
        <mxCell id="MDQ2Gq9n4eFnpE_oAw1Z-127" value="" style="shape=partialRectangle;html=1;whiteSpace=wrap;connectable=0;strokeColor=inherit;overflow=hidden;fillColor=none;top=0;left=0;bottom=0;right=0;pointerEvents=1;fontSize=16;" vertex="1" parent="MDQ2Gq9n4eFnpE_oAw1Z-126">
          <mxGeometry width="15" height="10" as="geometry">
            <mxRectangle width="15" height="10" as="alternateBounds" />
          </mxGeometry>
        </mxCell>
        <mxCell id="MDQ2Gq9n4eFnpE_oAw1Z-128" value="" style="shape=tableRow;horizontal=0;startSize=0;swimlaneHead=0;swimlaneBody=0;strokeColor=inherit;top=0;left=0;bottom=0;right=0;collapsible=0;dropTarget=0;fillColor=none;points=[[0,0.5],[1,0.5]];portConstraint=eastwest;fontSize=16;" vertex="1" parent="MDQ2Gq9n4eFnpE_oAw1Z-125">
          <mxGeometry y="10" width="15" height="10" as="geometry" />
        </mxCell>
        <mxCell id="MDQ2Gq9n4eFnpE_oAw1Z-129" value="" style="shape=partialRectangle;html=1;whiteSpace=wrap;connectable=0;strokeColor=inherit;overflow=hidden;fillColor=none;top=0;left=0;bottom=0;right=0;pointerEvents=1;fontSize=16;" vertex="1" parent="MDQ2Gq9n4eFnpE_oAw1Z-128">
          <mxGeometry width="15" height="10" as="geometry">
            <mxRectangle width="15" height="10" as="alternateBounds" />
          </mxGeometry>
        </mxCell>
        <mxCell id="MDQ2Gq9n4eFnpE_oAw1Z-130" style="shape=tableRow;horizontal=0;startSize=0;swimlaneHead=0;swimlaneBody=0;strokeColor=inherit;top=0;left=0;bottom=0;right=0;collapsible=0;dropTarget=0;fillColor=none;points=[[0,0.5],[1,0.5]];portConstraint=eastwest;fontSize=16;" vertex="1" parent="MDQ2Gq9n4eFnpE_oAw1Z-125">
          <mxGeometry y="20" width="15" height="10" as="geometry" />
        </mxCell>
        <mxCell id="MDQ2Gq9n4eFnpE_oAw1Z-131" style="shape=partialRectangle;html=1;whiteSpace=wrap;connectable=0;strokeColor=inherit;overflow=hidden;fillColor=none;top=0;left=0;bottom=0;right=0;pointerEvents=1;fontSize=16;" vertex="1" parent="MDQ2Gq9n4eFnpE_oAw1Z-130">
          <mxGeometry width="15" height="10" as="geometry">
            <mxRectangle width="15" height="10" as="alternateBounds" />
          </mxGeometry>
        </mxCell>
        <mxCell id="MDQ2Gq9n4eFnpE_oAw1Z-132" style="shape=tableRow;horizontal=0;startSize=0;swimlaneHead=0;swimlaneBody=0;strokeColor=inherit;top=0;left=0;bottom=0;right=0;collapsible=0;dropTarget=0;fillColor=none;points=[[0,0.5],[1,0.5]];portConstraint=eastwest;fontSize=16;" vertex="1" parent="MDQ2Gq9n4eFnpE_oAw1Z-125">
          <mxGeometry y="30" width="15" height="10" as="geometry" />
        </mxCell>
        <mxCell id="MDQ2Gq9n4eFnpE_oAw1Z-133" style="shape=partialRectangle;html=1;whiteSpace=wrap;connectable=0;strokeColor=inherit;overflow=hidden;fillColor=none;top=0;left=0;bottom=0;right=0;pointerEvents=1;fontSize=16;" vertex="1" parent="MDQ2Gq9n4eFnpE_oAw1Z-132">
          <mxGeometry width="15" height="10" as="geometry">
            <mxRectangle width="15" height="10" as="alternateBounds" />
          </mxGeometry>
        </mxCell>
        <mxCell id="MDQ2Gq9n4eFnpE_oAw1Z-134" value="" style="shape=table;startSize=0;container=1;collapsible=0;childLayout=tableLayout;fontSize=16;fillColor=#dae8fc;strokeColor=#6c8ebf;strokeWidth=2;swimlaneFillColor=#000000;" vertex="1" parent="1">
          <mxGeometry x="272.5" y="236" width="15" height="40" as="geometry" />
        </mxCell>
        <mxCell id="MDQ2Gq9n4eFnpE_oAw1Z-135" value="" style="shape=tableRow;horizontal=0;startSize=0;swimlaneHead=0;swimlaneBody=0;strokeColor=inherit;top=0;left=0;bottom=0;right=0;collapsible=0;dropTarget=0;fillColor=none;points=[[0,0.5],[1,0.5]];portConstraint=eastwest;fontSize=16;" vertex="1" parent="MDQ2Gq9n4eFnpE_oAw1Z-134">
          <mxGeometry width="15" height="10" as="geometry" />
        </mxCell>
        <mxCell id="MDQ2Gq9n4eFnpE_oAw1Z-136" value="" style="shape=partialRectangle;html=1;whiteSpace=wrap;connectable=0;strokeColor=inherit;overflow=hidden;fillColor=none;top=0;left=0;bottom=0;right=0;pointerEvents=1;fontSize=16;" vertex="1" parent="MDQ2Gq9n4eFnpE_oAw1Z-135">
          <mxGeometry width="15" height="10" as="geometry">
            <mxRectangle width="15" height="10" as="alternateBounds" />
          </mxGeometry>
        </mxCell>
        <mxCell id="MDQ2Gq9n4eFnpE_oAw1Z-137" value="" style="shape=tableRow;horizontal=0;startSize=0;swimlaneHead=0;swimlaneBody=0;strokeColor=inherit;top=0;left=0;bottom=0;right=0;collapsible=0;dropTarget=0;fillColor=none;points=[[0,0.5],[1,0.5]];portConstraint=eastwest;fontSize=16;" vertex="1" parent="MDQ2Gq9n4eFnpE_oAw1Z-134">
          <mxGeometry y="10" width="15" height="10" as="geometry" />
        </mxCell>
        <mxCell id="MDQ2Gq9n4eFnpE_oAw1Z-138" value="" style="shape=partialRectangle;html=1;whiteSpace=wrap;connectable=0;strokeColor=inherit;overflow=hidden;fillColor=none;top=0;left=0;bottom=0;right=0;pointerEvents=1;fontSize=16;" vertex="1" parent="MDQ2Gq9n4eFnpE_oAw1Z-137">
          <mxGeometry width="15" height="10" as="geometry">
            <mxRectangle width="15" height="10" as="alternateBounds" />
          </mxGeometry>
        </mxCell>
        <mxCell id="MDQ2Gq9n4eFnpE_oAw1Z-139" style="shape=tableRow;horizontal=0;startSize=0;swimlaneHead=0;swimlaneBody=0;strokeColor=inherit;top=0;left=0;bottom=0;right=0;collapsible=0;dropTarget=0;fillColor=none;points=[[0,0.5],[1,0.5]];portConstraint=eastwest;fontSize=16;" vertex="1" parent="MDQ2Gq9n4eFnpE_oAw1Z-134">
          <mxGeometry y="20" width="15" height="10" as="geometry" />
        </mxCell>
        <mxCell id="MDQ2Gq9n4eFnpE_oAw1Z-140" style="shape=partialRectangle;html=1;whiteSpace=wrap;connectable=0;strokeColor=inherit;overflow=hidden;fillColor=none;top=0;left=0;bottom=0;right=0;pointerEvents=1;fontSize=16;" vertex="1" parent="MDQ2Gq9n4eFnpE_oAw1Z-139">
          <mxGeometry width="15" height="10" as="geometry">
            <mxRectangle width="15" height="10" as="alternateBounds" />
          </mxGeometry>
        </mxCell>
        <mxCell id="MDQ2Gq9n4eFnpE_oAw1Z-141" style="shape=tableRow;horizontal=0;startSize=0;swimlaneHead=0;swimlaneBody=0;strokeColor=inherit;top=0;left=0;bottom=0;right=0;collapsible=0;dropTarget=0;fillColor=none;points=[[0,0.5],[1,0.5]];portConstraint=eastwest;fontSize=16;" vertex="1" parent="MDQ2Gq9n4eFnpE_oAw1Z-134">
          <mxGeometry y="30" width="15" height="10" as="geometry" />
        </mxCell>
        <mxCell id="MDQ2Gq9n4eFnpE_oAw1Z-142" style="shape=partialRectangle;html=1;whiteSpace=wrap;connectable=0;strokeColor=inherit;overflow=hidden;fillColor=none;top=0;left=0;bottom=0;right=0;pointerEvents=1;fontSize=16;" vertex="1" parent="MDQ2Gq9n4eFnpE_oAw1Z-141">
          <mxGeometry width="15" height="10" as="geometry">
            <mxRectangle width="15" height="10" as="alternateBounds" />
          </mxGeometry>
        </mxCell>
        <mxCell id="MDQ2Gq9n4eFnpE_oAw1Z-152" value="" style="shape=table;startSize=0;container=1;collapsible=0;childLayout=tableLayout;fontSize=16;fillColor=#dae8fc;strokeColor=#6c8ebf;strokeWidth=2;swimlaneFillColor=#000000;" vertex="1" parent="1">
          <mxGeometry x="637.5" y="236" width="15" height="40" as="geometry" />
        </mxCell>
        <mxCell id="MDQ2Gq9n4eFnpE_oAw1Z-153" value="" style="shape=tableRow;horizontal=0;startSize=0;swimlaneHead=0;swimlaneBody=0;strokeColor=inherit;top=0;left=0;bottom=0;right=0;collapsible=0;dropTarget=0;fillColor=none;points=[[0,0.5],[1,0.5]];portConstraint=eastwest;fontSize=16;" vertex="1" parent="MDQ2Gq9n4eFnpE_oAw1Z-152">
          <mxGeometry width="15" height="10" as="geometry" />
        </mxCell>
        <mxCell id="MDQ2Gq9n4eFnpE_oAw1Z-154" value="" style="shape=partialRectangle;html=1;whiteSpace=wrap;connectable=0;strokeColor=inherit;overflow=hidden;fillColor=none;top=0;left=0;bottom=0;right=0;pointerEvents=1;fontSize=16;" vertex="1" parent="MDQ2Gq9n4eFnpE_oAw1Z-153">
          <mxGeometry width="15" height="10" as="geometry">
            <mxRectangle width="15" height="10" as="alternateBounds" />
          </mxGeometry>
        </mxCell>
        <mxCell id="MDQ2Gq9n4eFnpE_oAw1Z-155" value="" style="shape=tableRow;horizontal=0;startSize=0;swimlaneHead=0;swimlaneBody=0;strokeColor=inherit;top=0;left=0;bottom=0;right=0;collapsible=0;dropTarget=0;fillColor=none;points=[[0,0.5],[1,0.5]];portConstraint=eastwest;fontSize=16;" vertex="1" parent="MDQ2Gq9n4eFnpE_oAw1Z-152">
          <mxGeometry y="10" width="15" height="10" as="geometry" />
        </mxCell>
        <mxCell id="MDQ2Gq9n4eFnpE_oAw1Z-156" value="" style="shape=partialRectangle;html=1;whiteSpace=wrap;connectable=0;strokeColor=inherit;overflow=hidden;fillColor=none;top=0;left=0;bottom=0;right=0;pointerEvents=1;fontSize=16;" vertex="1" parent="MDQ2Gq9n4eFnpE_oAw1Z-155">
          <mxGeometry width="15" height="10" as="geometry">
            <mxRectangle width="15" height="10" as="alternateBounds" />
          </mxGeometry>
        </mxCell>
        <mxCell id="MDQ2Gq9n4eFnpE_oAw1Z-157" style="shape=tableRow;horizontal=0;startSize=0;swimlaneHead=0;swimlaneBody=0;strokeColor=inherit;top=0;left=0;bottom=0;right=0;collapsible=0;dropTarget=0;fillColor=none;points=[[0,0.5],[1,0.5]];portConstraint=eastwest;fontSize=16;" vertex="1" parent="MDQ2Gq9n4eFnpE_oAw1Z-152">
          <mxGeometry y="20" width="15" height="10" as="geometry" />
        </mxCell>
        <mxCell id="MDQ2Gq9n4eFnpE_oAw1Z-158" style="shape=partialRectangle;html=1;whiteSpace=wrap;connectable=0;strokeColor=inherit;overflow=hidden;fillColor=none;top=0;left=0;bottom=0;right=0;pointerEvents=1;fontSize=16;" vertex="1" parent="MDQ2Gq9n4eFnpE_oAw1Z-157">
          <mxGeometry width="15" height="10" as="geometry">
            <mxRectangle width="15" height="10" as="alternateBounds" />
          </mxGeometry>
        </mxCell>
        <mxCell id="MDQ2Gq9n4eFnpE_oAw1Z-159" style="shape=tableRow;horizontal=0;startSize=0;swimlaneHead=0;swimlaneBody=0;strokeColor=inherit;top=0;left=0;bottom=0;right=0;collapsible=0;dropTarget=0;fillColor=none;points=[[0,0.5],[1,0.5]];portConstraint=eastwest;fontSize=16;" vertex="1" parent="MDQ2Gq9n4eFnpE_oAw1Z-152">
          <mxGeometry y="30" width="15" height="10" as="geometry" />
        </mxCell>
        <mxCell id="MDQ2Gq9n4eFnpE_oAw1Z-160" style="shape=partialRectangle;html=1;whiteSpace=wrap;connectable=0;strokeColor=inherit;overflow=hidden;fillColor=none;top=0;left=0;bottom=0;right=0;pointerEvents=1;fontSize=16;" vertex="1" parent="MDQ2Gq9n4eFnpE_oAw1Z-159">
          <mxGeometry width="15" height="10" as="geometry">
            <mxRectangle width="15" height="10" as="alternateBounds" />
          </mxGeometry>
        </mxCell>
        <mxCell id="MDQ2Gq9n4eFnpE_oAw1Z-179" value="" style="shape=table;startSize=0;container=1;collapsible=0;childLayout=tableLayout;fontSize=16;fillColor=#dae8fc;strokeColor=#6c8ebf;strokeWidth=2;swimlaneFillColor=#000000;" vertex="1" parent="1">
          <mxGeometry x="420" y="186" width="40" height="15" as="geometry" />
        </mxCell>
        <mxCell id="MDQ2Gq9n4eFnpE_oAw1Z-180" value="" style="shape=tableRow;horizontal=0;startSize=0;swimlaneHead=0;swimlaneBody=0;strokeColor=inherit;top=0;left=0;bottom=0;right=0;collapsible=0;dropTarget=0;fillColor=none;points=[[0,0.5],[1,0.5]];portConstraint=eastwest;fontSize=16;strokeWidth=2;swimlaneFillColor=#000000;" vertex="1" parent="MDQ2Gq9n4eFnpE_oAw1Z-179">
          <mxGeometry width="40" height="15" as="geometry" />
        </mxCell>
        <mxCell id="MDQ2Gq9n4eFnpE_oAw1Z-181" value="" style="shape=partialRectangle;html=1;whiteSpace=wrap;connectable=0;strokeColor=inherit;overflow=hidden;fillColor=none;top=0;left=0;bottom=0;right=0;pointerEvents=1;fontSize=16;strokeWidth=2;swimlaneFillColor=#000000;" vertex="1" parent="MDQ2Gq9n4eFnpE_oAw1Z-180">
          <mxGeometry width="10" height="15" as="geometry">
            <mxRectangle width="10" height="15" as="alternateBounds" />
          </mxGeometry>
        </mxCell>
        <mxCell id="MDQ2Gq9n4eFnpE_oAw1Z-188" style="shape=partialRectangle;html=1;whiteSpace=wrap;connectable=0;strokeColor=inherit;overflow=hidden;fillColor=none;top=0;left=0;bottom=0;right=0;pointerEvents=1;fontSize=16;strokeWidth=2;swimlaneFillColor=#000000;" vertex="1" parent="MDQ2Gq9n4eFnpE_oAw1Z-180">
          <mxGeometry x="10" width="10" height="15" as="geometry">
            <mxRectangle width="10" height="15" as="alternateBounds" />
          </mxGeometry>
        </mxCell>
        <mxCell id="MDQ2Gq9n4eFnpE_oAw1Z-189" style="shape=partialRectangle;html=1;whiteSpace=wrap;connectable=0;strokeColor=inherit;overflow=hidden;fillColor=none;top=0;left=0;bottom=0;right=0;pointerEvents=1;fontSize=16;strokeWidth=2;swimlaneFillColor=#000000;" vertex="1" parent="MDQ2Gq9n4eFnpE_oAw1Z-180">
          <mxGeometry x="20" width="10" height="15" as="geometry">
            <mxRectangle width="10" height="15" as="alternateBounds" />
          </mxGeometry>
        </mxCell>
        <mxCell id="MDQ2Gq9n4eFnpE_oAw1Z-190" style="shape=partialRectangle;html=1;whiteSpace=wrap;connectable=0;strokeColor=inherit;overflow=hidden;fillColor=none;top=0;left=0;bottom=0;right=0;pointerEvents=1;fontSize=16;strokeWidth=2;swimlaneFillColor=#000000;" vertex="1" parent="MDQ2Gq9n4eFnpE_oAw1Z-180">
          <mxGeometry x="30" width="10" height="15" as="geometry">
            <mxRectangle width="10" height="15" as="alternateBounds" />
          </mxGeometry>
        </mxCell>
        <mxCell id="MDQ2Gq9n4eFnpE_oAw1Z-199" value="" style="shape=table;startSize=0;container=1;collapsible=0;childLayout=tableLayout;fontSize=16;dashed=1;strokeWidth=1;" vertex="1" parent="1">
          <mxGeometry x="250" y="188.5" width="80" height="15" as="geometry" />
        </mxCell>
        <mxCell id="MDQ2Gq9n4eFnpE_oAw1Z-200" value="" style="shape=tableRow;horizontal=0;startSize=0;swimlaneHead=0;swimlaneBody=0;strokeColor=inherit;top=0;left=0;bottom=0;right=0;collapsible=0;dropTarget=0;fillColor=none;points=[[0,0.5],[1,0.5]];portConstraint=eastwest;fontSize=16;" vertex="1" parent="MDQ2Gq9n4eFnpE_oAw1Z-199">
          <mxGeometry width="80" height="15" as="geometry" />
        </mxCell>
        <mxCell id="MDQ2Gq9n4eFnpE_oAw1Z-208" style="shape=partialRectangle;html=1;whiteSpace=wrap;connectable=0;strokeColor=inherit;overflow=hidden;fillColor=none;top=0;left=0;bottom=0;right=0;pointerEvents=1;fontSize=16;" vertex="1" parent="MDQ2Gq9n4eFnpE_oAw1Z-200">
          <mxGeometry width="10" height="15" as="geometry">
            <mxRectangle width="10" height="15" as="alternateBounds" />
          </mxGeometry>
        </mxCell>
        <mxCell id="MDQ2Gq9n4eFnpE_oAw1Z-207" style="shape=partialRectangle;html=1;whiteSpace=wrap;connectable=0;strokeColor=inherit;overflow=hidden;fillColor=none;top=0;left=0;bottom=0;right=0;pointerEvents=1;fontSize=16;" vertex="1" parent="MDQ2Gq9n4eFnpE_oAw1Z-200">
          <mxGeometry x="10" width="10" height="15" as="geometry">
            <mxRectangle width="10" height="15" as="alternateBounds" />
          </mxGeometry>
        </mxCell>
        <mxCell id="MDQ2Gq9n4eFnpE_oAw1Z-206" style="shape=partialRectangle;html=1;whiteSpace=wrap;connectable=0;strokeColor=inherit;overflow=hidden;fillColor=none;top=0;left=0;bottom=0;right=0;pointerEvents=1;fontSize=16;" vertex="1" parent="MDQ2Gq9n4eFnpE_oAw1Z-200">
          <mxGeometry x="20" width="10" height="15" as="geometry">
            <mxRectangle width="10" height="15" as="alternateBounds" />
          </mxGeometry>
        </mxCell>
        <mxCell id="MDQ2Gq9n4eFnpE_oAw1Z-205" style="shape=partialRectangle;html=1;whiteSpace=wrap;connectable=0;strokeColor=inherit;overflow=hidden;fillColor=none;top=0;left=0;bottom=0;right=0;pointerEvents=1;fontSize=16;" vertex="1" parent="MDQ2Gq9n4eFnpE_oAw1Z-200">
          <mxGeometry x="30" width="10" height="15" as="geometry">
            <mxRectangle width="10" height="15" as="alternateBounds" />
          </mxGeometry>
        </mxCell>
        <mxCell id="MDQ2Gq9n4eFnpE_oAw1Z-201" value="" style="shape=partialRectangle;html=1;whiteSpace=wrap;connectable=0;strokeColor=inherit;overflow=hidden;fillColor=none;top=0;left=0;bottom=0;right=0;pointerEvents=1;fontSize=16;" vertex="1" parent="MDQ2Gq9n4eFnpE_oAw1Z-200">
          <mxGeometry x="40" width="10" height="15" as="geometry">
            <mxRectangle width="10" height="15" as="alternateBounds" />
          </mxGeometry>
        </mxCell>
        <mxCell id="MDQ2Gq9n4eFnpE_oAw1Z-202" style="shape=partialRectangle;html=1;whiteSpace=wrap;connectable=0;strokeColor=inherit;overflow=hidden;fillColor=none;top=0;left=0;bottom=0;right=0;pointerEvents=1;fontSize=16;" vertex="1" parent="MDQ2Gq9n4eFnpE_oAw1Z-200">
          <mxGeometry x="50" width="10" height="15" as="geometry">
            <mxRectangle width="10" height="15" as="alternateBounds" />
          </mxGeometry>
        </mxCell>
        <mxCell id="MDQ2Gq9n4eFnpE_oAw1Z-203" style="shape=partialRectangle;html=1;whiteSpace=wrap;connectable=0;strokeColor=inherit;overflow=hidden;fillColor=none;top=0;left=0;bottom=0;right=0;pointerEvents=1;fontSize=16;" vertex="1" parent="MDQ2Gq9n4eFnpE_oAw1Z-200">
          <mxGeometry x="60" width="10" height="15" as="geometry">
            <mxRectangle width="10" height="15" as="alternateBounds" />
          </mxGeometry>
        </mxCell>
        <mxCell id="MDQ2Gq9n4eFnpE_oAw1Z-204" style="shape=partialRectangle;html=1;whiteSpace=wrap;connectable=0;strokeColor=inherit;overflow=hidden;fillColor=none;top=0;left=0;bottom=0;right=0;pointerEvents=1;fontSize=16;" vertex="1" parent="MDQ2Gq9n4eFnpE_oAw1Z-200">
          <mxGeometry x="70" width="10" height="15" as="geometry">
            <mxRectangle width="10" height="15" as="alternateBounds" />
          </mxGeometry>
        </mxCell>
        <mxCell id="MDQ2Gq9n4eFnpE_oAw1Z-209" value="" style="shape=table;startSize=0;container=1;collapsible=0;childLayout=tableLayout;fontSize=16;dashed=1;strokeWidth=1;" vertex="1" parent="1">
          <mxGeometry x="615" y="188.5" width="80" height="15" as="geometry" />
        </mxCell>
        <mxCell id="MDQ2Gq9n4eFnpE_oAw1Z-210" value="" style="shape=tableRow;horizontal=0;startSize=0;swimlaneHead=0;swimlaneBody=0;strokeColor=inherit;top=0;left=0;bottom=0;right=0;collapsible=0;dropTarget=0;fillColor=none;points=[[0,0.5],[1,0.5]];portConstraint=eastwest;fontSize=16;" vertex="1" parent="MDQ2Gq9n4eFnpE_oAw1Z-209">
          <mxGeometry width="80" height="15" as="geometry" />
        </mxCell>
        <mxCell id="MDQ2Gq9n4eFnpE_oAw1Z-211" style="shape=partialRectangle;html=1;whiteSpace=wrap;connectable=0;strokeColor=inherit;overflow=hidden;fillColor=none;top=0;left=0;bottom=0;right=0;pointerEvents=1;fontSize=16;" vertex="1" parent="MDQ2Gq9n4eFnpE_oAw1Z-210">
          <mxGeometry width="10" height="15" as="geometry">
            <mxRectangle width="10" height="15" as="alternateBounds" />
          </mxGeometry>
        </mxCell>
        <mxCell id="MDQ2Gq9n4eFnpE_oAw1Z-212" style="shape=partialRectangle;html=1;whiteSpace=wrap;connectable=0;strokeColor=inherit;overflow=hidden;fillColor=none;top=0;left=0;bottom=0;right=0;pointerEvents=1;fontSize=16;" vertex="1" parent="MDQ2Gq9n4eFnpE_oAw1Z-210">
          <mxGeometry x="10" width="10" height="15" as="geometry">
            <mxRectangle width="10" height="15" as="alternateBounds" />
          </mxGeometry>
        </mxCell>
        <mxCell id="MDQ2Gq9n4eFnpE_oAw1Z-213" style="shape=partialRectangle;html=1;whiteSpace=wrap;connectable=0;strokeColor=inherit;overflow=hidden;fillColor=none;top=0;left=0;bottom=0;right=0;pointerEvents=1;fontSize=16;" vertex="1" parent="MDQ2Gq9n4eFnpE_oAw1Z-210">
          <mxGeometry x="20" width="10" height="15" as="geometry">
            <mxRectangle width="10" height="15" as="alternateBounds" />
          </mxGeometry>
        </mxCell>
        <mxCell id="MDQ2Gq9n4eFnpE_oAw1Z-214" style="shape=partialRectangle;html=1;whiteSpace=wrap;connectable=0;strokeColor=inherit;overflow=hidden;fillColor=none;top=0;left=0;bottom=0;right=0;pointerEvents=1;fontSize=16;" vertex="1" parent="MDQ2Gq9n4eFnpE_oAw1Z-210">
          <mxGeometry x="30" width="10" height="15" as="geometry">
            <mxRectangle width="10" height="15" as="alternateBounds" />
          </mxGeometry>
        </mxCell>
        <mxCell id="MDQ2Gq9n4eFnpE_oAw1Z-215" value="" style="shape=partialRectangle;html=1;whiteSpace=wrap;connectable=0;strokeColor=inherit;overflow=hidden;fillColor=none;top=0;left=0;bottom=0;right=0;pointerEvents=1;fontSize=16;" vertex="1" parent="MDQ2Gq9n4eFnpE_oAw1Z-210">
          <mxGeometry x="40" width="10" height="15" as="geometry">
            <mxRectangle width="10" height="15" as="alternateBounds" />
          </mxGeometry>
        </mxCell>
        <mxCell id="MDQ2Gq9n4eFnpE_oAw1Z-216" style="shape=partialRectangle;html=1;whiteSpace=wrap;connectable=0;strokeColor=inherit;overflow=hidden;fillColor=none;top=0;left=0;bottom=0;right=0;pointerEvents=1;fontSize=16;" vertex="1" parent="MDQ2Gq9n4eFnpE_oAw1Z-210">
          <mxGeometry x="50" width="10" height="15" as="geometry">
            <mxRectangle width="10" height="15" as="alternateBounds" />
          </mxGeometry>
        </mxCell>
        <mxCell id="MDQ2Gq9n4eFnpE_oAw1Z-217" style="shape=partialRectangle;html=1;whiteSpace=wrap;connectable=0;strokeColor=inherit;overflow=hidden;fillColor=none;top=0;left=0;bottom=0;right=0;pointerEvents=1;fontSize=16;" vertex="1" parent="MDQ2Gq9n4eFnpE_oAw1Z-210">
          <mxGeometry x="60" width="10" height="15" as="geometry">
            <mxRectangle width="10" height="15" as="alternateBounds" />
          </mxGeometry>
        </mxCell>
        <mxCell id="MDQ2Gq9n4eFnpE_oAw1Z-218" style="shape=partialRectangle;html=1;whiteSpace=wrap;connectable=0;strokeColor=inherit;overflow=hidden;fillColor=none;top=0;left=0;bottom=0;right=0;pointerEvents=1;fontSize=16;" vertex="1" parent="MDQ2Gq9n4eFnpE_oAw1Z-210">
          <mxGeometry x="70" width="10" height="15" as="geometry">
            <mxRectangle width="10" height="15" as="alternateBounds" />
          </mxGeometry>
        </mxCell>
        <mxCell id="MDQ2Gq9n4eFnpE_oAw1Z-219" value="" style="shape=table;startSize=0;container=1;collapsible=0;childLayout=tableLayout;fontSize=16;fillColor=#dae8fc;strokeColor=#6c8ebf;strokeWidth=2;swimlaneFillColor=#000000;" vertex="1" parent="1">
          <mxGeometry x="272.5" y="356" width="15" height="40" as="geometry" />
        </mxCell>
        <mxCell id="MDQ2Gq9n4eFnpE_oAw1Z-220" value="" style="shape=tableRow;horizontal=0;startSize=0;swimlaneHead=0;swimlaneBody=0;strokeColor=inherit;top=0;left=0;bottom=0;right=0;collapsible=0;dropTarget=0;fillColor=none;points=[[0,0.5],[1,0.5]];portConstraint=eastwest;fontSize=16;" vertex="1" parent="MDQ2Gq9n4eFnpE_oAw1Z-219">
          <mxGeometry width="15" height="10" as="geometry" />
        </mxCell>
        <mxCell id="MDQ2Gq9n4eFnpE_oAw1Z-221" value="" style="shape=partialRectangle;html=1;whiteSpace=wrap;connectable=0;strokeColor=inherit;overflow=hidden;fillColor=none;top=0;left=0;bottom=0;right=0;pointerEvents=1;fontSize=16;" vertex="1" parent="MDQ2Gq9n4eFnpE_oAw1Z-220">
          <mxGeometry width="15" height="10" as="geometry">
            <mxRectangle width="15" height="10" as="alternateBounds" />
          </mxGeometry>
        </mxCell>
        <mxCell id="MDQ2Gq9n4eFnpE_oAw1Z-222" value="" style="shape=tableRow;horizontal=0;startSize=0;swimlaneHead=0;swimlaneBody=0;strokeColor=inherit;top=0;left=0;bottom=0;right=0;collapsible=0;dropTarget=0;fillColor=none;points=[[0,0.5],[1,0.5]];portConstraint=eastwest;fontSize=16;" vertex="1" parent="MDQ2Gq9n4eFnpE_oAw1Z-219">
          <mxGeometry y="10" width="15" height="10" as="geometry" />
        </mxCell>
        <mxCell id="MDQ2Gq9n4eFnpE_oAw1Z-223" value="" style="shape=partialRectangle;html=1;whiteSpace=wrap;connectable=0;strokeColor=inherit;overflow=hidden;fillColor=none;top=0;left=0;bottom=0;right=0;pointerEvents=1;fontSize=16;" vertex="1" parent="MDQ2Gq9n4eFnpE_oAw1Z-222">
          <mxGeometry width="15" height="10" as="geometry">
            <mxRectangle width="15" height="10" as="alternateBounds" />
          </mxGeometry>
        </mxCell>
        <mxCell id="MDQ2Gq9n4eFnpE_oAw1Z-224" style="shape=tableRow;horizontal=0;startSize=0;swimlaneHead=0;swimlaneBody=0;strokeColor=inherit;top=0;left=0;bottom=0;right=0;collapsible=0;dropTarget=0;fillColor=none;points=[[0,0.5],[1,0.5]];portConstraint=eastwest;fontSize=16;" vertex="1" parent="MDQ2Gq9n4eFnpE_oAw1Z-219">
          <mxGeometry y="20" width="15" height="10" as="geometry" />
        </mxCell>
        <mxCell id="MDQ2Gq9n4eFnpE_oAw1Z-225" style="shape=partialRectangle;html=1;whiteSpace=wrap;connectable=0;strokeColor=inherit;overflow=hidden;fillColor=none;top=0;left=0;bottom=0;right=0;pointerEvents=1;fontSize=16;" vertex="1" parent="MDQ2Gq9n4eFnpE_oAw1Z-224">
          <mxGeometry width="15" height="10" as="geometry">
            <mxRectangle width="15" height="10" as="alternateBounds" />
          </mxGeometry>
        </mxCell>
        <mxCell id="MDQ2Gq9n4eFnpE_oAw1Z-226" style="shape=tableRow;horizontal=0;startSize=0;swimlaneHead=0;swimlaneBody=0;strokeColor=inherit;top=0;left=0;bottom=0;right=0;collapsible=0;dropTarget=0;fillColor=none;points=[[0,0.5],[1,0.5]];portConstraint=eastwest;fontSize=16;" vertex="1" parent="MDQ2Gq9n4eFnpE_oAw1Z-219">
          <mxGeometry y="30" width="15" height="10" as="geometry" />
        </mxCell>
        <mxCell id="MDQ2Gq9n4eFnpE_oAw1Z-227" style="shape=partialRectangle;html=1;whiteSpace=wrap;connectable=0;strokeColor=inherit;overflow=hidden;fillColor=none;top=0;left=0;bottom=0;right=0;pointerEvents=1;fontSize=16;" vertex="1" parent="MDQ2Gq9n4eFnpE_oAw1Z-226">
          <mxGeometry width="15" height="10" as="geometry">
            <mxRectangle width="15" height="10" as="alternateBounds" />
          </mxGeometry>
        </mxCell>
        <mxCell id="MDQ2Gq9n4eFnpE_oAw1Z-228" value="" style="shape=table;startSize=0;container=1;collapsible=0;childLayout=tableLayout;fontSize=16;fillColor=#dae8fc;strokeColor=#6c8ebf;strokeWidth=2;swimlaneFillColor=#000000;" vertex="1" parent="1">
          <mxGeometry x="790" y="186" width="40" height="15" as="geometry" />
        </mxCell>
        <mxCell id="MDQ2Gq9n4eFnpE_oAw1Z-229" value="" style="shape=tableRow;horizontal=0;startSize=0;swimlaneHead=0;swimlaneBody=0;strokeColor=inherit;top=0;left=0;bottom=0;right=0;collapsible=0;dropTarget=0;fillColor=none;points=[[0,0.5],[1,0.5]];portConstraint=eastwest;fontSize=16;" vertex="1" parent="MDQ2Gq9n4eFnpE_oAw1Z-228">
          <mxGeometry width="40" height="15" as="geometry" />
        </mxCell>
        <mxCell id="MDQ2Gq9n4eFnpE_oAw1Z-230" value="" style="shape=partialRectangle;html=1;whiteSpace=wrap;connectable=0;strokeColor=inherit;overflow=hidden;fillColor=none;top=0;left=0;bottom=0;right=0;pointerEvents=1;fontSize=16;" vertex="1" parent="MDQ2Gq9n4eFnpE_oAw1Z-229">
          <mxGeometry width="10" height="15" as="geometry">
            <mxRectangle width="10" height="15" as="alternateBounds" />
          </mxGeometry>
        </mxCell>
        <mxCell id="MDQ2Gq9n4eFnpE_oAw1Z-231" style="shape=partialRectangle;html=1;whiteSpace=wrap;connectable=0;strokeColor=inherit;overflow=hidden;fillColor=none;top=0;left=0;bottom=0;right=0;pointerEvents=1;fontSize=16;" vertex="1" parent="MDQ2Gq9n4eFnpE_oAw1Z-229">
          <mxGeometry x="10" width="10" height="15" as="geometry">
            <mxRectangle width="10" height="15" as="alternateBounds" />
          </mxGeometry>
        </mxCell>
        <mxCell id="MDQ2Gq9n4eFnpE_oAw1Z-232" style="shape=partialRectangle;html=1;whiteSpace=wrap;connectable=0;strokeColor=inherit;overflow=hidden;fillColor=none;top=0;left=0;bottom=0;right=0;pointerEvents=1;fontSize=16;" vertex="1" parent="MDQ2Gq9n4eFnpE_oAw1Z-229">
          <mxGeometry x="20" width="10" height="15" as="geometry">
            <mxRectangle width="10" height="15" as="alternateBounds" />
          </mxGeometry>
        </mxCell>
        <mxCell id="MDQ2Gq9n4eFnpE_oAw1Z-233" style="shape=partialRectangle;html=1;whiteSpace=wrap;connectable=0;strokeColor=inherit;overflow=hidden;fillColor=none;top=0;left=0;bottom=0;right=0;pointerEvents=1;fontSize=16;" vertex="1" parent="MDQ2Gq9n4eFnpE_oAw1Z-229">
          <mxGeometry x="30" width="10" height="15" as="geometry">
            <mxRectangle width="10" height="15" as="alternateBounds" />
          </mxGeometry>
        </mxCell>
        <mxCell id="MDQ2Gq9n4eFnpE_oAw1Z-237" value="" style="rounded=0;orthogonalLoop=1;jettySize=auto;html=1;entryX=0.157;entryY=0.9;entryDx=0;entryDy=0;entryPerimeter=0;" edge="1" parent="1" source="MDQ2Gq9n4eFnpE_oAw1Z-236" target="MDQ2Gq9n4eFnpE_oAw1Z-32">
          <mxGeometry relative="1" as="geometry" />
        </mxCell>
        <mxCell id="MDQ2Gq9n4eFnpE_oAw1Z-236" value="A" style="ellipse;whiteSpace=wrap;html=1;aspect=fixed;fillColor=#d80073;fontColor=#ffffff;strokeColor=#A50040;" vertex="1" parent="1">
          <mxGeometry x="82.5" y="326" width="20" height="20" as="geometry" />
        </mxCell>
        <mxCell id="MDQ2Gq9n4eFnpE_oAw1Z-238" value="" style="rounded=0;orthogonalLoop=1;jettySize=auto;html=1;" edge="1" parent="1" source="MDQ2Gq9n4eFnpE_oAw1Z-239">
          <mxGeometry relative="1" as="geometry">
            <mxPoint x="128" y="343" as="targetPoint" />
          </mxGeometry>
        </mxCell>
        <mxCell id="MDQ2Gq9n4eFnpE_oAw1Z-239" value="B" style="ellipse;whiteSpace=wrap;html=1;aspect=fixed;fillColor=#d80073;fontColor=#ffffff;strokeColor=#A50040;" vertex="1" parent="1">
          <mxGeometry x="117.5" y="286.5" width="20" height="20" as="geometry" />
        </mxCell>
        <mxCell id="MDQ2Gq9n4eFnpE_oAw1Z-240" value="" style="rounded=0;orthogonalLoop=1;jettySize=auto;html=1;entryX=0.157;entryY=0.9;entryDx=0;entryDy=0;entryPerimeter=0;" edge="1" parent="1" source="MDQ2Gq9n4eFnpE_oAw1Z-241">
          <mxGeometry relative="1" as="geometry">
            <mxPoint x="265.5" y="286" as="targetPoint" />
          </mxGeometry>
        </mxCell>
        <mxCell id="MDQ2Gq9n4eFnpE_oAw1Z-241" value="A" style="ellipse;whiteSpace=wrap;html=1;aspect=fixed;fillColor=#d80073;fontColor=#ffffff;strokeColor=#A50040;" vertex="1" parent="1">
          <mxGeometry x="255" y="327" width="20" height="20" as="geometry" />
        </mxCell>
        <mxCell id="MDQ2Gq9n4eFnpE_oAw1Z-242" value="" style="rounded=0;orthogonalLoop=1;jettySize=auto;html=1;" edge="1" parent="1" source="MDQ2Gq9n4eFnpE_oAw1Z-243">
          <mxGeometry relative="1" as="geometry">
            <mxPoint x="300.5" y="344" as="targetPoint" />
          </mxGeometry>
        </mxCell>
        <mxCell id="MDQ2Gq9n4eFnpE_oAw1Z-243" value="B" style="ellipse;whiteSpace=wrap;html=1;aspect=fixed;fillColor=#d80073;fontColor=#ffffff;strokeColor=#A50040;" vertex="1" parent="1">
          <mxGeometry x="290" y="287.5" width="20" height="20" as="geometry" />
        </mxCell>
        <mxCell id="MDQ2Gq9n4eFnpE_oAw1Z-244" value="" style="rounded=0;orthogonalLoop=1;jettySize=auto;html=1;entryX=0.157;entryY=0.9;entryDx=0;entryDy=0;entryPerimeter=0;" edge="1" parent="1" source="MDQ2Gq9n4eFnpE_oAw1Z-245">
          <mxGeometry relative="1" as="geometry">
            <mxPoint x="455.5" y="286" as="targetPoint" />
          </mxGeometry>
        </mxCell>
        <mxCell id="MDQ2Gq9n4eFnpE_oAw1Z-245" value="A" style="ellipse;whiteSpace=wrap;html=1;aspect=fixed;fillColor=#d80073;fontColor=#ffffff;strokeColor=#A50040;" vertex="1" parent="1">
          <mxGeometry x="445" y="327" width="20" height="20" as="geometry" />
        </mxCell>
        <mxCell id="MDQ2Gq9n4eFnpE_oAw1Z-246" value="" style="rounded=0;orthogonalLoop=1;jettySize=auto;html=1;" edge="1" parent="1" source="MDQ2Gq9n4eFnpE_oAw1Z-247">
          <mxGeometry relative="1" as="geometry">
            <mxPoint x="490.5" y="344" as="targetPoint" />
          </mxGeometry>
        </mxCell>
        <mxCell id="MDQ2Gq9n4eFnpE_oAw1Z-247" value="B" style="ellipse;whiteSpace=wrap;html=1;aspect=fixed;fillColor=#d80073;fontColor=#ffffff;strokeColor=#A50040;" vertex="1" parent="1">
          <mxGeometry x="480" y="287.5" width="20" height="20" as="geometry" />
        </mxCell>
        <mxCell id="MDQ2Gq9n4eFnpE_oAw1Z-248" value="" style="rounded=0;orthogonalLoop=1;jettySize=auto;html=1;entryX=0.157;entryY=0.9;entryDx=0;entryDy=0;entryPerimeter=0;" edge="1" parent="1" source="MDQ2Gq9n4eFnpE_oAw1Z-249">
          <mxGeometry relative="1" as="geometry">
            <mxPoint x="628" y="285" as="targetPoint" />
          </mxGeometry>
        </mxCell>
        <mxCell id="MDQ2Gq9n4eFnpE_oAw1Z-249" value="A" style="ellipse;whiteSpace=wrap;html=1;aspect=fixed;fillColor=#d80073;fontColor=#ffffff;strokeColor=#A50040;" vertex="1" parent="1">
          <mxGeometry x="617.5" y="326" width="20" height="20" as="geometry" />
        </mxCell>
        <mxCell id="MDQ2Gq9n4eFnpE_oAw1Z-250" value="" style="rounded=0;orthogonalLoop=1;jettySize=auto;html=1;" edge="1" parent="1" source="MDQ2Gq9n4eFnpE_oAw1Z-251">
          <mxGeometry relative="1" as="geometry">
            <mxPoint x="663" y="343" as="targetPoint" />
          </mxGeometry>
        </mxCell>
        <mxCell id="MDQ2Gq9n4eFnpE_oAw1Z-251" value="B" style="ellipse;whiteSpace=wrap;html=1;aspect=fixed;fillColor=#d80073;fontColor=#ffffff;strokeColor=#A50040;" vertex="1" parent="1">
          <mxGeometry x="652.5" y="286.5" width="20" height="20" as="geometry" />
        </mxCell>
        <mxCell id="MDQ2Gq9n4eFnpE_oAw1Z-252" value="" style="rounded=0;orthogonalLoop=1;jettySize=auto;html=1;entryX=0.157;entryY=0.9;entryDx=0;entryDy=0;entryPerimeter=0;" edge="1" parent="1" source="MDQ2Gq9n4eFnpE_oAw1Z-253">
          <mxGeometry relative="1" as="geometry">
            <mxPoint x="818" y="285" as="targetPoint" />
          </mxGeometry>
        </mxCell>
        <mxCell id="MDQ2Gq9n4eFnpE_oAw1Z-253" value="A" style="ellipse;whiteSpace=wrap;html=1;aspect=fixed;fillColor=#d80073;fontColor=#ffffff;strokeColor=#A50040;" vertex="1" parent="1">
          <mxGeometry x="807.5" y="326" width="20" height="20" as="geometry" />
        </mxCell>
        <mxCell id="MDQ2Gq9n4eFnpE_oAw1Z-254" value="" style="rounded=0;orthogonalLoop=1;jettySize=auto;html=1;" edge="1" parent="1" source="MDQ2Gq9n4eFnpE_oAw1Z-255">
          <mxGeometry relative="1" as="geometry">
            <mxPoint x="853" y="343" as="targetPoint" />
          </mxGeometry>
        </mxCell>
        <mxCell id="MDQ2Gq9n4eFnpE_oAw1Z-255" value="B" style="ellipse;whiteSpace=wrap;html=1;aspect=fixed;fillColor=#d80073;fontColor=#ffffff;strokeColor=#A50040;" vertex="1" parent="1">
          <mxGeometry x="842.5" y="286.5" width="20" height="20" as="geometry" />
        </mxCell>
        <mxCell id="MDQ2Gq9n4eFnpE_oAw1Z-256" value="" style="rounded=0;orthogonalLoop=1;jettySize=auto;html=1;entryX=0.157;entryY=0.9;entryDx=0;entryDy=0;entryPerimeter=0;" edge="1" parent="1" source="MDQ2Gq9n4eFnpE_oAw1Z-257">
          <mxGeometry relative="1" as="geometry">
            <mxPoint x="965.5" y="285" as="targetPoint" />
          </mxGeometry>
        </mxCell>
        <mxCell id="MDQ2Gq9n4eFnpE_oAw1Z-257" value="A" style="ellipse;whiteSpace=wrap;html=1;aspect=fixed;fillColor=#d80073;fontColor=#ffffff;strokeColor=#A50040;" vertex="1" parent="1">
          <mxGeometry x="955" y="326" width="20" height="20" as="geometry" />
        </mxCell>
        <mxCell id="MDQ2Gq9n4eFnpE_oAw1Z-258" value="" style="rounded=0;orthogonalLoop=1;jettySize=auto;html=1;" edge="1" parent="1" source="MDQ2Gq9n4eFnpE_oAw1Z-259">
          <mxGeometry relative="1" as="geometry">
            <mxPoint x="1000.5" y="343" as="targetPoint" />
          </mxGeometry>
        </mxCell>
        <mxCell id="MDQ2Gq9n4eFnpE_oAw1Z-259" value="B" style="ellipse;whiteSpace=wrap;html=1;aspect=fixed;fillColor=#d80073;fontColor=#ffffff;strokeColor=#A50040;" vertex="1" parent="1">
          <mxGeometry x="990" y="286.5" width="20" height="20" as="geometry" />
        </mxCell>
        <mxCell id="MDQ2Gq9n4eFnpE_oAw1Z-262" value="" style="rounded=0;orthogonalLoop=1;jettySize=auto;html=1;" edge="1" parent="1" source="MDQ2Gq9n4eFnpE_oAw1Z-263">
          <mxGeometry relative="1" as="geometry">
            <mxPoint x="409" y="176" as="targetPoint" />
          </mxGeometry>
        </mxCell>
        <mxCell id="MDQ2Gq9n4eFnpE_oAw1Z-265" value="" style="rounded=0;orthogonalLoop=1;jettySize=auto;html=1;entryX=0.157;entryY=0.9;entryDx=0;entryDy=0;entryPerimeter=0;" edge="1" parent="1">
          <mxGeometry relative="1" as="geometry">
            <mxPoint x="705" y="216.5" as="targetPoint" />
            <mxPoint x="754" y="216.5" as="sourcePoint" />
          </mxGeometry>
        </mxCell>
        <mxCell id="MDQ2Gq9n4eFnpE_oAw1Z-266" value="F" style="ellipse;whiteSpace=wrap;html=1;aspect=fixed;fillColor=#008a00;fontColor=#ffffff;strokeColor=#005700;rotation=0;" vertex="1" parent="1">
          <mxGeometry x="760" y="206.5" width="20" height="20" as="geometry" />
        </mxCell>
        <mxCell id="MDQ2Gq9n4eFnpE_oAw1Z-267" value="E" style="ellipse;whiteSpace=wrap;html=1;aspect=fixed;fillColor=#008a00;fontColor=#ffffff;strokeColor=#005700;rotation=0;direction=west;" vertex="1" parent="1">
          <mxGeometry x="707" y="164.5" width="20" height="20" as="geometry" />
        </mxCell>
        <mxCell id="MDQ2Gq9n4eFnpE_oAw1Z-268" value="" style="rounded=0;orthogonalLoop=1;jettySize=auto;html=1;" edge="1" parent="1" source="MDQ2Gq9n4eFnpE_oAw1Z-267">
          <mxGeometry relative="1" as="geometry">
            <mxPoint x="780" y="175" as="targetPoint" />
          </mxGeometry>
        </mxCell>
        <mxCell id="MDQ2Gq9n4eFnpE_oAw1Z-260" value="" style="rounded=0;orthogonalLoop=1;jettySize=auto;html=1;entryX=0.157;entryY=0.9;entryDx=0;entryDy=0;entryPerimeter=0;" edge="1" parent="1" source="MDQ2Gq9n4eFnpE_oAw1Z-261">
          <mxGeometry relative="1" as="geometry">
            <mxPoint x="340" y="213.5" as="targetPoint" />
          </mxGeometry>
        </mxCell>
        <mxCell id="MDQ2Gq9n4eFnpE_oAw1Z-261" value="D" style="ellipse;whiteSpace=wrap;html=1;aspect=fixed;fillColor=#0050ef;fontColor=#ffffff;strokeColor=#001DBC;rotation=0;" vertex="1" parent="1">
          <mxGeometry x="389" y="203.5" width="20" height="20" as="geometry" />
        </mxCell>
        <mxCell id="MDQ2Gq9n4eFnpE_oAw1Z-263" value="C" style="ellipse;whiteSpace=wrap;html=1;aspect=fixed;fillColor=#0050ef;fontColor=#ffffff;strokeColor=#001DBC;rotation=0;" vertex="1" parent="1">
          <mxGeometry x="342" y="165.5" width="20" height="20" as="geometry" />
        </mxCell>
        <mxCell id="MDQ2Gq9n4eFnpE_oAw1Z-271" value="" style="shape=curlyBracket;whiteSpace=wrap;html=1;rounded=1;flipH=1;labelPosition=right;verticalLabelPosition=middle;align=left;verticalAlign=middle;" vertex="1" parent="1">
          <mxGeometry x="120.5" y="361" width="15.5" height="35" as="geometry" />
        </mxCell>
        <mxCell id="MDQ2Gq9n4eFnpE_oAw1Z-272" value="G" style="ellipse;whiteSpace=wrap;html=1;aspect=fixed;fillColor=#d80073;fontColor=#ffffff;strokeColor=#A50040;" vertex="1" parent="1">
          <mxGeometry x="137.5" y="368.5" width="20" height="20" as="geometry" />
        </mxCell>
        <mxCell id="MDQ2Gq9n4eFnpE_oAw1Z-274" value="" style="shape=curlyBracket;whiteSpace=wrap;html=1;rounded=1;flipH=1;labelPosition=right;verticalLabelPosition=middle;align=left;verticalAlign=middle;" vertex="1" parent="1">
          <mxGeometry x="290" y="361" width="15.5" height="35" as="geometry" />
        </mxCell>
        <mxCell id="MDQ2Gq9n4eFnpE_oAw1Z-275" value="G" style="ellipse;whiteSpace=wrap;html=1;aspect=fixed;fillColor=#d80073;fontColor=#ffffff;strokeColor=#A50040;" vertex="1" parent="1">
          <mxGeometry x="307" y="368.5" width="20" height="20" as="geometry" />
        </mxCell>
        <mxCell id="MDQ2Gq9n4eFnpE_oAw1Z-278" value="" style="shape=curlyBracket;whiteSpace=wrap;html=1;rounded=1;flipH=1;labelPosition=right;verticalLabelPosition=middle;align=left;verticalAlign=middle;" vertex="1" parent="1">
          <mxGeometry x="652.5" y="360" width="15.5" height="35" as="geometry" />
        </mxCell>
        <mxCell id="MDQ2Gq9n4eFnpE_oAw1Z-279" value="G" style="ellipse;whiteSpace=wrap;html=1;aspect=fixed;fillColor=#d80073;fontColor=#ffffff;strokeColor=#A50040;" vertex="1" parent="1">
          <mxGeometry x="669.5" y="367.5" width="20" height="20" as="geometry" />
        </mxCell>
        <mxCell id="MDQ2Gq9n4eFnpE_oAw1Z-284" value="" style="shape=curlyBracket;whiteSpace=wrap;html=1;rounded=1;flipH=1;labelPosition=right;verticalLabelPosition=middle;align=left;verticalAlign=middle;" vertex="1" parent="1">
          <mxGeometry x="120.5" y="238.5" width="15.5" height="35" as="geometry" />
        </mxCell>
        <mxCell id="MDQ2Gq9n4eFnpE_oAw1Z-285" value="G" style="ellipse;whiteSpace=wrap;html=1;aspect=fixed;fillColor=#d80073;fontColor=#ffffff;strokeColor=#A50040;" vertex="1" parent="1">
          <mxGeometry x="137.5" y="246" width="20" height="20" as="geometry" />
        </mxCell>
        <mxCell id="MDQ2Gq9n4eFnpE_oAw1Z-288" value="" style="shape=curlyBracket;whiteSpace=wrap;html=1;rounded=1;flipH=1;labelPosition=right;verticalLabelPosition=middle;align=left;verticalAlign=middle;" vertex="1" parent="1">
          <mxGeometry x="290" y="238.5" width="15.5" height="35" as="geometry" />
        </mxCell>
        <mxCell id="MDQ2Gq9n4eFnpE_oAw1Z-289" value="G" style="ellipse;whiteSpace=wrap;html=1;aspect=fixed;fillColor=#d80073;fontColor=#ffffff;strokeColor=#A50040;" vertex="1" parent="1">
          <mxGeometry x="307" y="246" width="20" height="20" as="geometry" />
        </mxCell>
        <mxCell id="MDQ2Gq9n4eFnpE_oAw1Z-290" value="" style="shape=curlyBracket;whiteSpace=wrap;html=1;rounded=1;flipH=1;labelPosition=right;verticalLabelPosition=middle;align=left;verticalAlign=middle;" vertex="1" parent="1">
          <mxGeometry x="654.5" y="237" width="15.5" height="35" as="geometry" />
        </mxCell>
        <mxCell id="MDQ2Gq9n4eFnpE_oAw1Z-291" value="G" style="ellipse;whiteSpace=wrap;html=1;aspect=fixed;fillColor=#d80073;fontColor=#ffffff;strokeColor=#A50040;" vertex="1" parent="1">
          <mxGeometry x="671.5" y="244.5" width="20" height="20" as="geometry" />
        </mxCell>
        <mxCell id="MDQ2Gq9n4eFnpE_oAw1Z-295" value="" style="shape=curlyBracket;whiteSpace=wrap;html=1;rounded=1;flipH=1;labelPosition=right;verticalLabelPosition=middle;align=left;verticalAlign=middle;rotation=-90;" vertex="1" parent="1">
          <mxGeometry x="435" y="160.25" width="11.75" height="35" as="geometry" />
        </mxCell>
        <mxCell id="MDQ2Gq9n4eFnpE_oAw1Z-296" value="H" style="ellipse;whiteSpace=wrap;html=1;aspect=fixed;fillColor=#0050ef;fontColor=#ffffff;strokeColor=#001DBC;" vertex="1" parent="1">
          <mxGeometry x="430.87" y="145.5" width="20" height="20" as="geometry" />
        </mxCell>
        <mxCell id="MDQ2Gq9n4eFnpE_oAw1Z-303" value="" style="shape=curlyBracket;whiteSpace=wrap;html=1;rounded=1;flipH=1;labelPosition=right;verticalLabelPosition=middle;align=left;verticalAlign=middle;rotation=-90;" vertex="1" parent="1">
          <mxGeometry x="807.13" y="160.25" width="11.75" height="35" as="geometry" />
        </mxCell>
        <mxCell id="MDQ2Gq9n4eFnpE_oAw1Z-304" value="I" style="ellipse;whiteSpace=wrap;html=1;aspect=fixed;fillColor=#008a00;fontColor=#ffffff;strokeColor=#005700;fontFamily=Times New Roman;" vertex="1" parent="1">
          <mxGeometry x="803" y="145.5" width="20" height="20" as="geometry" />
        </mxCell>
        <mxCell id="MDQ2Gq9n4eFnpE_oAw1Z-306" value="J" style="ellipse;whiteSpace=wrap;html=1;aspect=fixed;fillColor=#ffe6cc;strokeColor=#d79b00;" vertex="1" parent="1">
          <mxGeometry x="157.5" y="181" width="20" height="20" as="geometry" />
        </mxCell>
        <mxCell id="MDQ2Gq9n4eFnpE_oAw1Z-308" style="edgeStyle=orthogonalEdgeStyle;rounded=0;orthogonalLoop=1;jettySize=auto;html=1;curved=1;startArrow=classic;startFill=1;dashed=1;dashPattern=8 8;exitX=0.25;exitY=0;exitDx=0;exitDy=0;entryX=0;entryY=0.5;entryDx=0;entryDy=0;" edge="1" parent="1" source="MDQ2Gq9n4eFnpE_oAw1Z-134" target="MDQ2Gq9n4eFnpE_oAw1Z-200">
          <mxGeometry relative="1" as="geometry">
            <mxPoint x="150" y="261" as="sourcePoint" />
            <mxPoint x="240" y="196" as="targetPoint" />
          </mxGeometry>
        </mxCell>
        <mxCell id="MDQ2Gq9n4eFnpE_oAw1Z-309" value="J" style="ellipse;whiteSpace=wrap;html=1;aspect=fixed;fillColor=#ffe6cc;strokeColor=#d79b00;" vertex="1" parent="1">
          <mxGeometry x="235" y="218.5" width="20" height="20" as="geometry" />
        </mxCell>
        <mxCell id="MDQ2Gq9n4eFnpE_oAw1Z-310" style="edgeStyle=orthogonalEdgeStyle;rounded=0;orthogonalLoop=1;jettySize=auto;html=1;entryX=1;entryY=0.5;entryDx=0;entryDy=0;curved=1;startArrow=classic;startFill=1;dashed=1;dashPattern=8 8;" edge="1" parent="1" target="MDQ2Gq9n4eFnpE_oAw1Z-180">
          <mxGeometry relative="1" as="geometry">
            <mxPoint x="470" y="276" as="sourcePoint" />
            <mxPoint x="550" y="331" as="targetPoint" />
          </mxGeometry>
        </mxCell>
        <mxCell id="MDQ2Gq9n4eFnpE_oAw1Z-311" value="J" style="ellipse;whiteSpace=wrap;html=1;aspect=fixed;fillColor=#ffe6cc;strokeColor=#d79b00;" vertex="1" parent="1">
          <mxGeometry x="480" y="224.5" width="20" height="20" as="geometry" />
        </mxCell>
        <mxCell id="MDQ2Gq9n4eFnpE_oAw1Z-312" style="edgeStyle=orthogonalEdgeStyle;rounded=0;orthogonalLoop=1;jettySize=auto;html=1;curved=1;startArrow=classic;startFill=1;dashed=1;dashPattern=8 8;entryX=0;entryY=0.5;entryDx=0;entryDy=0;" edge="1" parent="1" target="MDQ2Gq9n4eFnpE_oAw1Z-209">
          <mxGeometry relative="1" as="geometry">
            <mxPoint x="460" y="194" as="sourcePoint" />
            <mxPoint x="470" y="196" as="targetPoint" />
          </mxGeometry>
        </mxCell>
        <mxCell id="MDQ2Gq9n4eFnpE_oAw1Z-313" value="J" style="ellipse;whiteSpace=wrap;html=1;aspect=fixed;fillColor=#ffe6cc;strokeColor=#d79b00;" vertex="1" parent="1">
          <mxGeometry x="600" y="218.5" width="20" height="20" as="geometry" />
        </mxCell>
        <mxCell id="MDQ2Gq9n4eFnpE_oAw1Z-314" style="edgeStyle=orthogonalEdgeStyle;rounded=0;orthogonalLoop=1;jettySize=auto;html=1;curved=1;startArrow=classic;startFill=1;dashed=1;dashPattern=8 8;exitX=0.5;exitY=0;exitDx=0;exitDy=0;" edge="1" parent="1" source="MDQ2Gq9n4eFnpE_oAw1Z-152" target="MDQ2Gq9n4eFnpE_oAw1Z-210">
          <mxGeometry relative="1" as="geometry">
            <mxPoint x="530" y="298" as="sourcePoint" />
            <mxPoint x="520" y="216" as="targetPoint" />
          </mxGeometry>
        </mxCell>
        <mxCell id="MDQ2Gq9n4eFnpE_oAw1Z-315" value="J" style="ellipse;whiteSpace=wrap;html=1;aspect=fixed;fillColor=#ffe6cc;strokeColor=#d79b00;" vertex="1" parent="1">
          <mxGeometry x="525" y="175.25" width="20" height="20" as="geometry" />
        </mxCell>
        <mxCell id="MDQ2Gq9n4eFnpE_oAw1Z-316" style="edgeStyle=orthogonalEdgeStyle;rounded=0;orthogonalLoop=1;jettySize=auto;html=1;curved=1;startArrow=classic;startFill=1;dashed=1;dashPattern=8 8;exitX=1;exitY=0.5;exitDx=0;exitDy=0;entryX=0.5;entryY=0;entryDx=0;entryDy=0;" edge="1" parent="1" source="MDQ2Gq9n4eFnpE_oAw1Z-228" target="MDQ2Gq9n4eFnpE_oAw1Z-40">
          <mxGeometry relative="1" as="geometry">
            <mxPoint x="650" y="256" as="sourcePoint" />
            <mxPoint x="910" y="336" as="targetPoint" />
          </mxGeometry>
        </mxCell>
        <mxCell id="MDQ2Gq9n4eFnpE_oAw1Z-317" value="J" style="ellipse;whiteSpace=wrap;html=1;aspect=fixed;fillColor=#ffe6cc;strokeColor=#d79b00;" vertex="1" parent="1">
          <mxGeometry x="850" y="224.5" width="20" height="20" as="geometry" />
        </mxCell>
        <mxCell id="MDQ2Gq9n4eFnpE_oAw1Z-318" style="edgeStyle=orthogonalEdgeStyle;rounded=0;orthogonalLoop=1;jettySize=auto;html=1;curved=1;startArrow=classic;startFill=1;dashed=1;dashPattern=8 8;exitX=0.5;exitY=0;exitDx=0;exitDy=0;entryX=1;entryY=0.5;entryDx=0;entryDy=0;" edge="1" parent="1" source="MDQ2Gq9n4eFnpE_oAw1Z-41" target="MDQ2Gq9n4eFnpE_oAw1Z-229">
          <mxGeometry relative="1" as="geometry">
            <mxPoint x="850" y="196" as="sourcePoint" />
            <mxPoint x="930" y="296" as="targetPoint" />
          </mxGeometry>
        </mxCell>
        <mxCell id="MDQ2Gq9n4eFnpE_oAw1Z-319" value="J" style="ellipse;whiteSpace=wrap;html=1;aspect=fixed;fillColor=#ffe6cc;strokeColor=#d79b00;" vertex="1" parent="1">
          <mxGeometry x="930" y="185.5" width="20" height="20" as="geometry" />
        </mxCell>
        <mxCell id="MDQ2Gq9n4eFnpE_oAw1Z-320" value="A" style="ellipse;whiteSpace=wrap;html=1;aspect=fixed;fillColor=#d80073;fontColor=#ffffff;strokeColor=#A50040;" vertex="1" parent="1">
          <mxGeometry x="65" y="550" width="20" height="20" as="geometry" />
        </mxCell>
        <mxCell id="MDQ2Gq9n4eFnpE_oAw1Z-321" value="B" style="ellipse;whiteSpace=wrap;html=1;aspect=fixed;fillColor=#d80073;fontColor=#ffffff;strokeColor=#A50040;" vertex="1" parent="1">
          <mxGeometry x="65" y="580" width="20" height="20" as="geometry" />
        </mxCell>
        <mxCell id="MDQ2Gq9n4eFnpE_oAw1Z-322" value="C" style="ellipse;whiteSpace=wrap;html=1;aspect=fixed;fillColor=#0050ef;fontColor=#ffffff;strokeColor=#001DBC;" vertex="1" parent="1">
          <mxGeometry x="65" y="610" width="20" height="20" as="geometry" />
        </mxCell>
        <mxCell id="MDQ2Gq9n4eFnpE_oAw1Z-323" value="D" style="ellipse;whiteSpace=wrap;html=1;aspect=fixed;fillColor=#0050ef;fontColor=#ffffff;strokeColor=#001DBC;" vertex="1" parent="1">
          <mxGeometry x="65" y="640" width="20" height="20" as="geometry" />
        </mxCell>
        <mxCell id="MDQ2Gq9n4eFnpE_oAw1Z-324" value="E" style="ellipse;whiteSpace=wrap;html=1;aspect=fixed;fillColor=#008a00;fontColor=#ffffff;strokeColor=#005700;" vertex="1" parent="1">
          <mxGeometry x="65" y="670" width="20" height="20" as="geometry" />
        </mxCell>
        <mxCell id="MDQ2Gq9n4eFnpE_oAw1Z-325" value="F" style="ellipse;whiteSpace=wrap;html=1;aspect=fixed;fillColor=#008a00;fontColor=#ffffff;strokeColor=#005700;" vertex="1" parent="1">
          <mxGeometry x="65" y="700" width="20" height="20" as="geometry" />
        </mxCell>
        <mxCell id="MDQ2Gq9n4eFnpE_oAw1Z-326" value="G" style="ellipse;whiteSpace=wrap;html=1;aspect=fixed;fillColor=#d80073;fontColor=#ffffff;strokeColor=#A50040;" vertex="1" parent="1">
          <mxGeometry x="65" y="730" width="20" height="20" as="geometry" />
        </mxCell>
        <mxCell id="MDQ2Gq9n4eFnpE_oAw1Z-327" value="H" style="ellipse;whiteSpace=wrap;html=1;aspect=fixed;fillColor=#0050ef;fontColor=#ffffff;strokeColor=#001DBC;" vertex="1" parent="1">
          <mxGeometry x="65" y="760" width="20" height="20" as="geometry" />
        </mxCell>
        <mxCell id="MDQ2Gq9n4eFnpE_oAw1Z-329" value="J" style="ellipse;whiteSpace=wrap;html=1;aspect=fixed;fillColor=#ffe6cc;strokeColor=#d79b00;" vertex="1" parent="1">
          <mxGeometry x="345" y="550" width="20" height="20" as="geometry" />
        </mxCell>
        <mxCell id="MDQ2Gq9n4eFnpE_oAw1Z-330" value="cn_delay" style="text;html=1;align=left;verticalAlign=middle;whiteSpace=wrap;rounded=0;" vertex="1" parent="1">
          <mxGeometry x="90" y="545" width="60" height="30" as="geometry" />
        </mxCell>
        <mxCell id="MDQ2Gq9n4eFnpE_oAw1Z-331" value="cn_credit_delay" style="text;html=1;align=left;verticalAlign=middle;whiteSpace=wrap;rounded=0;" vertex="1" parent="1">
          <mxGeometry x="90" y="575" width="60" height="30" as="geometry" />
        </mxCell>
        <mxCell id="MDQ2Gq9n4eFnpE_oAw1Z-332" value="global_delay" style="text;html=1;align=left;verticalAlign=middle;whiteSpace=wrap;rounded=0;" vertex="1" parent="1">
          <mxGeometry x="90" y="605" width="60" height="30" as="geometry" />
        </mxCell>
        <mxCell id="MDQ2Gq9n4eFnpE_oAw1Z-333" value="local_vc_size" style="text;html=1;align=left;verticalAlign=middle;whiteSpace=wrap;rounded=0;" vertex="1" parent="1">
          <mxGeometry x="90" y="755" width="60" height="30" as="geometry" />
        </mxCell>
        <mxCell id="MDQ2Gq9n4eFnpE_oAw1Z-334" value="local_credit_delay" style="text;html=1;align=left;verticalAlign=middle;whiteSpace=wrap;rounded=0;" vertex="1" parent="1">
          <mxGeometry x="90" y="695" width="60" height="30" as="geometry" />
        </mxCell>
        <mxCell id="MDQ2Gq9n4eFnpE_oAw1Z-335" value="local_delay" style="text;html=1;align=left;verticalAlign=middle;whiteSpace=wrap;rounded=0;" vertex="1" parent="1">
          <mxGeometry x="90" y="665" width="60" height="30" as="geometry" />
        </mxCell>
        <mxCell id="MDQ2Gq9n4eFnpE_oAw1Z-336" value="cn_vc_size" style="text;html=1;align=left;verticalAlign=middle;whiteSpace=wrap;rounded=0;" vertex="1" parent="1">
          <mxGeometry x="90" y="725" width="60" height="30" as="geometry" />
        </mxCell>
        <mxCell id="MDQ2Gq9n4eFnpE_oAw1Z-337" value="global_credit_delay" style="text;html=1;align=left;verticalAlign=middle;whiteSpace=wrap;rounded=0;" vertex="1" parent="1">
          <mxGeometry x="90" y="635" width="60" height="30" as="geometry" />
        </mxCell>
        <mxCell id="MDQ2Gq9n4eFnpE_oAw1Z-338" value="I" style="ellipse;whiteSpace=wrap;html=1;aspect=fixed;fillColor=#008a00;fontColor=#ffffff;strokeColor=#005700;fontFamily=Times New Roman;" vertex="1" parent="1">
          <mxGeometry x="65" y="790" width="20" height="20" as="geometry" />
        </mxCell>
        <mxCell id="MDQ2Gq9n4eFnpE_oAw1Z-339" value="global_vc_size" style="text;html=1;align=left;verticalAlign=middle;whiteSpace=wrap;rounded=0;" vertex="1" parent="1">
          <mxGeometry x="90" y="785" width="60" height="30" as="geometry" />
        </mxCell>
        <mxCell id="MDQ2Gq9n4eFnpE_oAw1Z-340" value="router_delay" style="text;html=1;align=left;verticalAlign=middle;whiteSpace=wrap;rounded=0;" vertex="1" parent="1">
          <mxGeometry x="370" y="545" width="60" height="30" as="geometry" />
        </mxCell>
        <mxCell id="MDQ2Gq9n4eFnpE_oAw1Z-341" value="cn_bandwidth" style="text;html=1;align=left;verticalAlign=middle;whiteSpace=wrap;rounded=0;" vertex="1" parent="1">
          <mxGeometry x="370" y="575" width="60" height="30" as="geometry" />
        </mxCell>
        <mxCell id="MDQ2Gq9n4eFnpE_oAw1Z-342" value="BW1" style="text;html=1;align=right;verticalAlign=middle;whiteSpace=wrap;rounded=0;" vertex="1" parent="1">
          <mxGeometry x="305" y="575" width="60" height="30" as="geometry" />
        </mxCell>
        <mxCell id="MDQ2Gq9n4eFnpE_oAw1Z-343" value="global_bandwidth" style="text;html=1;align=left;verticalAlign=middle;whiteSpace=wrap;rounded=0;" vertex="1" parent="1">
          <mxGeometry x="370" y="600" width="60" height="30" as="geometry" />
        </mxCell>
        <mxCell id="MDQ2Gq9n4eFnpE_oAw1Z-344" value="BW2" style="text;html=1;align=right;verticalAlign=middle;whiteSpace=wrap;rounded=0;" vertex="1" parent="1">
          <mxGeometry x="305" y="600" width="60" height="30" as="geometry" />
        </mxCell>
        <mxCell id="MDQ2Gq9n4eFnpE_oAw1Z-345" value="local_bandwidth" style="text;html=1;align=left;verticalAlign=middle;whiteSpace=wrap;rounded=0;" vertex="1" parent="1">
          <mxGeometry x="370" y="626" width="60" height="30" as="geometry" />
        </mxCell>
        <mxCell id="MDQ2Gq9n4eFnpE_oAw1Z-346" value="BW3" style="text;html=1;align=right;verticalAlign=middle;whiteSpace=wrap;rounded=0;" vertex="1" parent="1">
          <mxGeometry x="305" y="626" width="60" height="30" as="geometry" />
        </mxCell>
        <mxCell id="MDQ2Gq9n4eFnpE_oAw1Z-347" value="Flow 0&lt;div&gt;[term-id: 14] -&amp;gt;&amp;nbsp;&amp;nbsp;&lt;span style=&quot;background-color: transparent; color: light-dark(rgb(0, 0, 0), rgb(255, 255, 255));&quot;&gt;[term-id: 3]&lt;/span&gt;&lt;span style=&quot;background-color: transparent; color: light-dark(rgb(0, 0, 0), rgb(255, 255, 255));&quot;&gt;&amp;nbsp;&lt;/span&gt;&lt;/div&gt;&lt;div&gt;&lt;span style=&quot;background-color: transparent; color: light-dark(rgb(0, 0, 0), rgb(255, 255, 255));&quot;&gt;&lt;br&gt;&lt;/span&gt;&lt;/div&gt;&lt;div&gt;Flow 1&lt;div&gt;[term-id: 15] -&amp;gt;&amp;nbsp;&amp;nbsp;&lt;span style=&quot;background-color: transparent; color: light-dark(rgb(0, 0, 0), rgb(255, 255, 255));&quot;&gt;[term-id: 0]&lt;/span&gt;&lt;span style=&quot;background-color: transparent; color: light-dark(rgb(0, 0, 0), rgb(255, 255, 255));&quot;&gt;&amp;nbsp;&lt;/span&gt;&lt;/div&gt;&lt;/div&gt;&lt;div&gt;&lt;span style=&quot;background-color: transparent; color: light-dark(rgb(0, 0, 0), rgb(255, 255, 255));&quot;&gt;&lt;br&gt;&lt;/span&gt;&lt;/div&gt;&lt;div&gt;Flow 2&lt;div&gt;[term-id: 1] -&amp;gt;&amp;nbsp;&amp;nbsp;&lt;span style=&quot;background-color: transparent; color: light-dark(rgb(0, 0, 0), rgb(255, 255, 255));&quot;&gt;[term-id: 2]&lt;/span&gt;&lt;span style=&quot;background-color: transparent; color: light-dark(rgb(0, 0, 0), rgb(255, 255, 255));&quot;&gt;&amp;nbsp;&lt;/span&gt;&lt;/div&gt;&lt;/div&gt;" style="text;html=1;align=left;verticalAlign=top;whiteSpace=wrap;rounded=0;" vertex="1" parent="1">
          <mxGeometry x="827.5" y="550" width="190" height="30" as="geometry" />
        </mxCell>
        <mxCell id="MDQ2Gq9n4eFnpE_oAw1Z-348" value="&lt;b&gt;VERY IMPORTANT&lt;/b&gt;: *_delay values and *_vc_size values should be carefully adjusted together. Delay values impact round trip time and VC sizes must be large enough to buffer the round trip duration." style="text;html=1;align=left;verticalAlign=middle;whiteSpace=wrap;rounded=0;" vertex="1" parent="1">
          <mxGeometry x="322" y="700" width="288" height="80" as="geometry" />
        </mxCell>
        <mxCell id="MDQ2Gq9n4eFnpE_oAw1Z-349" value="&lt;font style=&quot;font-size: 14px;&quot;&gt;&lt;b&gt;ModSim 2025 Experiment Setup&lt;/b&gt;&lt;/font&gt;&lt;div&gt;Edit using draw.io&lt;/div&gt;" style="text;html=1;align=left;verticalAlign=middle;whiteSpace=wrap;rounded=0;" vertex="1" parent="1">
          <mxGeometry x="57" y="30" width="250" height="30" as="geometry" />
        </mxCell>
      </root>
    </mxGraphModel>
  </diagram>
</mxfile>
